<svg width="64" height="64" viewBox="0 0 64 64" fill="none" xmlns="http://www.w3.org/2000/svg">
<path d="M60 52.5H57.5V18C57.5 17.6022 57.342 17.2206 57.0607 16.9393C56.7794 16.658 56.3978 16.5 56 16.5H45.5V10C45.5 9.60218 45.342 9.22064 45.0607 8.93934C44.7794 8.65804 44.3978 8.5 44 8.5H20C19.6022 8.5 19.2206 8.65804 18.9393 8.93934C18.658 9.22064 18.5 9.60218 18.5 10V24.5H8C7.60218 24.5 7.22064 24.658 6.93934 24.9393C6.65804 25.2206 6.5 25.6022 6.5 26V52.5H4C3.60218 52.5 3.22064 52.658 2.93934 52.9393C2.65804 53.2206 2.5 53.6022 2.5 54C2.5 54.3978 2.65804 54.7794 2.93934 55.0607C3.22064 55.342 3.60218 55.5 4 55.5H60C60.3978 55.5 60.7794 55.342 61.0607 55.0607C61.342 54.7794 61.5 54.3978 61.5 54C61.5 53.6022 61.342 53.2206 61.0607 52.9393C60.7794 52.658 60.3978 52.5 60 52.5ZM9.5 27.5H20C20.3978 27.5 20.7794 27.342 21.0607 27.0607C21.342 26.7794 21.5 26.3978 21.5 26V11.5H42.5V18C42.5 18.3978 42.658 18.7794 42.9393 19.0607C43.2206 19.342 43.6022 19.5 44 19.5H54.5V52.5H37.5V42C37.5 41.6022 37.342 41.2206 37.0607 40.9393C36.7794 40.658 36.3978 40.5 36 40.5H28C27.6022 40.5 27.2206 40.658 26.9393 40.9393C26.658 41.2206 26.5 41.6022 26.5 42V52.5H9.5V27.5ZM34.5 52.5H29.5V43.5H34.5V52.5ZM28.5 18C28.5 17.6022 28.658 17.2206 28.9393 16.9393C29.2206 16.658 29.6022 16.5 30 16.5H34C34.3978 16.5 34.7794 16.658 35.0607 16.9393C35.342 17.2206 35.5 17.6022 35.5 18C35.5 18.3978 35.342 18.7794 35.0607 19.0607C34.7794 19.342 34.3978 19.5 34 19.5H30C29.6022 19.5 29.2206 19.342 28.9393 19.0607C28.658 18.7794 28.5 18.3978 28.5 18ZM28.5 26C28.5 25.6022 28.658 25.2206 28.9393 24.9393C29.2206 24.658 29.6022 24.5 30 24.5H34C34.3978 24.5 34.7794 24.658 35.0607 24.9393C35.342 25.2206 35.5 25.6022 35.5 26C35.5 26.3978 35.342 26.7794 35.0607 27.0607C34.7794 27.342 34.3978 27.5 34 27.5H30C29.6022 27.5 29.2206 27.342 28.9393 27.0607C28.658 26.7794 28.5 26.3978 28.5 26ZM42.5 26C42.5 25.6022 42.658 25.2206 42.9393 24.9393C43.2206 24.658 43.6022 24.5 44 24.5H48C48.3978 24.5 48.7794 24.658 49.0607 24.9393C49.342 25.2206 49.5 25.6022 49.5 26C49.5 26.3978 49.342 26.7794 49.0607 27.0607C48.7794 27.342 48.3978 27.5 48 27.5H44C43.6022 27.5 43.2206 27.342 42.9393 27.0607C42.658 26.7794 42.5 26.3978 42.5 26ZM21.5 34C21.5 34.3978 21.342 34.7794 21.0607 35.0607C20.7794 35.342 20.3978 35.5 20 35.5H16C15.6022 35.5 15.2206 35.342 14.9393 35.0607C14.658 34.7794 14.5 34.3978 14.5 34C14.5 33.6022 14.658 33.2206 14.9393 32.9393C15.2206 32.658 15.6022 32.5 16 32.5H20C20.3978 32.5 20.7794 32.658 21.0607 32.9393C21.342 33.2206 21.5 33.6022 21.5 34ZM21.5 42C21.5 42.3978 21.342 42.7794 21.0607 43.0607C20.7794 43.342 20.3978 43.5 20 43.5H16C15.6022 43.5 15.2206 43.342 14.9393 43.0607C14.658 42.7794 14.5 42.3978 14.5 42C14.5 41.6022 14.658 41.2206 14.9393 40.9393C15.2206 40.658 15.6022 40.5 16 40.5H20C20.3978 40.5 20.7794 40.658 21.0607 40.9393C21.342 41.2206 21.5 41.6022 21.5 42ZM28.5 34C28.5 33.6022 28.658 33.2206 28.9393 32.9393C29.2206 32.658 29.6022 32.5 30 32.5H34C34.3978 32.5 34.7794 32.658 35.0607 32.9393C35.342 33.2206 35.5 33.6022 35.5 34C35.5 34.3978 35.342 34.7794 35.0607 35.0607C34.7794 35.342 34.3978 35.5 34 35.5H30C29.6022 35.5 29.2206 35.342 28.9393 35.0607C28.658 34.7794 28.5 34.3978 28.5 34ZM42.5 34C42.5 33.6022 42.658 33.2206 42.9393 32.9393C43.2206 32.658 43.6022 32.5 44 32.5H48C48.3978 32.5 48.7794 32.658 49.0607 32.9393C49.342 33.2206 49.5 33.6022 49.5 34C49.5 34.3978 49.342 34.7794 49.0607 35.0607C48.7794 35.342 48.3978 35.5 48 35.5H44C43.6022 35.5 43.2206 35.342 42.9393 35.0607C42.658 34.7794 42.5 34.3978 42.5 34ZM42.5 42C42.5 41.6022 42.658 41.2206 42.9393 40.9393C43.2206 40.658 43.6022 40.5 44 40.5H48C48.3978 40.5 48.7794 40.658 49.0607 40.9393C49.342 41.2206 49.5 41.6022 49.5 42C49.5 42.3978 49.342 42.7794 49.0607 43.0607C48.7794 43.342 48.3978 43.5 48 43.5H44C43.6022 43.5 43.2206 43.342 42.9393 43.0607C42.658 42.7794 42.5 42.3978 42.5 42Z" fill="black"/>
</svg>
