<?xml version="1.0" standalone="no"?>
<!DOCTYPE svg PUBLIC "-//W3C//DTD SVG 20010904//EN"
 "http://www.w3.org/TR/2001/REC-SVG-20010904/DTD/svg10.dtd">
<svg version="1.0" xmlns="http://www.w3.org/2000/svg"
 width="1024.000000pt" height="1024.000000pt" viewBox="0 0 1024.000000 1024.000000"
 preserveAspectRatio="xMidYMid meet">
<metadata>
Created by potrace 1.16, written by Peter Selinger 2001-2019
</metadata>
<g transform="translate(0.000000,1024.000000) scale(0.100000,-0.100000)"
fill="#de333b" stroke="none">
<path d="M5020 9289 c-67 -12 -121 -39 -268 -136 -241 -157 -271 -165 -463
-129 -307 59 -472 57 -619 -7 -45 -20 -137 -89 -220 -166 -77 -72 -164 -121
-214 -121 -64 0 -141 -37 -189 -90 -58 -65 -73 -118 -51 -189 21 -72 130 -282
341 -656 278 -493 363 -666 363 -734 0 -36 -56 -83 -287 -238 -280 -187 -435
-313 -642 -516 -446 -439 -762 -926 -924 -1422 -74 -226 -101 -466 -94 -835 5
-289 20 -403 75 -596 242 -835 1019 -1501 2112 -1809 462 -130 828 -180 1325
-179 436 0 671 28 1050 124 245 62 409 121 620 225 695 340 1240 942 1458
1610 98 300 114 665 46 1054 -45 256 -137 488 -304 766 -343 572 -868 1126
-1723 1819 -67 54 -72 61 -67 90 99 604 179 983 290 1371 80 282 89 359 49
438 -27 52 -114 157 -144 172 -51 26 -108 28 -434 9 -390 -21 -441 -16 -621
61 -180 77 -339 106 -465 84z m212 -480 c247 -110 341 -128 691 -136 142 -3
260 -9 262 -13 13 -22 -216 -820 -246 -856 -23 -28 -224 -58 -634 -93 -427
-37 -1051 -78 -1264 -83 l-113 -3 -68 125 c-37 69 -124 231 -194 360 l-127
235 53 48 c103 93 252 210 287 225 53 21 117 17 201 -13 365 -133 488 -113
890 149 80 52 150 95 157 95 7 1 54 -18 105 -40z m641 -1530 c5 -9 7 -27 4
-41 -9 -33 -58 -53 -175 -73 -183 -30 -825 -66 -1222 -69 -232 -1 -270 1 -303
16 -30 14 -38 22 -35 40 6 45 139 62 843 108 253 16 483 31 510 33 28 2 122 3
209 3 134 -1 160 -3 169 -17z m199 -561 c66 -30 131 -77 283 -203 61 -50 160
-131 220 -180 500 -403 931 -896 1179 -1350 125 -230 202 -437 248 -668 31
-159 31 -417 -1 -567 -134 -632 -595 -1183 -1271 -1519 -249 -123 -501 -215
-705 -256 -281 -57 -954 -61 -1400 -10 -396 46 -826 185 -1250 404 -675 347
-1053 827 -1151 1460 -20 127 -23 444 -5 571 41 300 114 534 251 805 202 401
527 773 989 1133 272 212 403 279 633 322 111 21 301 31 798 40 502 9 794 22
922 40 105 14 197 7 260 -22z"/>
<path d="M4823 6279 c-89 -26 -129 -113 -143 -306 -5 -75 -13 -121 -23 -137
-16 -23 -44 -39 -220 -120 -207 -95 -399 -273 -480 -445 -27 -56 -31 -79 -35
-172 -7 -159 27 -261 134 -406 63 -85 157 -166 269 -232 71 -41 122 -65 298
-140 26 -11 47 -24 47 -30 0 -5 9 -85 20 -178 25 -213 30 -367 12 -385 -10
-10 -63 -13 -215 -14 -122 0 -212 -4 -227 -11 -59 -25 -140 -144 -140 -205 0
-34 31 -89 77 -140 40 -42 127 -75 248 -92 148 -22 226 -43 258 -69 15 -12 38
-49 52 -82 47 -117 113 -168 218 -168 82 0 133 36 167 120 44 107 52 112 276
153 367 67 576 157 726 313 84 86 119 164 126 275 3 68 1 102 -13 143 -92 283
-310 435 -910 635 l-220 73 -3 375 -2 376 52 0 c135 -1 255 -32 403 -107 107
-53 166 -95 261 -185 79 -73 127 -99 190 -100 93 -2 146 66 152 194 5 102 -22
163 -115 260 -162 167 -359 260 -787 369 -150 38 -194 87 -195 215 -2 171
-111 266 -258 223z m-168 -1004 c17 -35 20 -67 23 -267 3 -126 1 -228 -3 -228
-11 0 -176 100 -217 132 -115 90 -102 210 38 337 92 84 127 90 159 26z m640
-1160 c226 -82 475 -206 490 -243 16 -42 -46 -90 -176 -137 -139 -50 -340 -72
-403 -44 -29 14 -33 27 -46 167 -5 57 -17 142 -26 189 -24 129 -16 132 161 68z"/>
<path d="M7095 4773 c-50 -27 -105 -74 -120 -104 -20 -38 -19 -91 4 -181 66
-259 27 -420 -226 -934 -175 -353 -186 -443 -66 -519 30 -19 63 -30 97 -33 45
-3 57 0 100 30 91 60 165 176 342 524 184 366 199 419 191 672 -6 180 -20 270
-57 369 -58 156 -167 228 -265 176z"/>
<path d="M2973 4599 c-24 -6 -60 -26 -87 -50 -37 -32 -50 -53 -66 -105 -38
-126 -56 -388 -40 -602 13 -179 33 -272 68 -314 33 -39 95 -67 146 -68 50 0
121 41 142 82 40 78 70 424 61 703 -7 197 -18 267 -45 305 -34 46 -106 66
-179 49z"/>
</g>
</svg>
