<svg width="64" height="64" viewBox="0 0 64 64" fill="none" xmlns="http://www.w3.org/2000/svg">
<path d="M28.2268 4.03952C27.7323 4.03785 27.2365 4.03814 26.7393 4.04039C24.3459 4.05152 21.9143 4.11439 19.4619 4.20539L20.1714 7.31702C22.7253 7.02827 25.5251 6.81327 28.3248 6.70577C29.8415 6.64752 31.349 6.61677 32.8113 6.62452C37.1981 6.64739 41.1784 7.01577 43.7825 8.02477L44.896 8.45652L44.3989 9.54214C40.7663 17.4778 39.9261 25.1336 40.4954 32.6454C40.7764 23.7306 44.482 15.8016 49.3466 5.63689C42.7271 4.53689 35.6424 4.06414 28.2268 4.03939V4.03952ZM31.731 8.88827C30.6385 8.88914 29.5248 8.91127 28.4111 8.95402C23.2021 9.15402 18.0113 9.76527 14.6281 10.466C18.4073 17.4759 21.4644 24.5019 23.4385 31.3513C23.6841 31.3431 23.9298 31.345 24.1753 31.3569C24.6775 31.3815 25.1743 31.4496 25.6596 31.5556C23.6503 25.131 21.3615 19.2056 18.5164 13.2893L17.8735 11.9525L19.3343 11.694C23.0038 11.0443 26.7913 10.7928 30.396 10.7916C30.6364 10.7916 30.8759 10.7926 31.1145 10.7946C33.405 10.8146 35.6125 10.9331 37.6578 11.1115L39.0395 11.2321L38.6365 12.5593C36.299 20.2546 35.8411 28.519 37.1628 36.382C37.1849 36.4023 37.2068 36.4227 37.2285 36.4433C37.7051 36.2763 38.151 36.106 38.5666 35.924C37.5349 27.4998 37.992 18.8086 41.8453 9.77389C39.695 9.22602 36.4171 8.93964 32.8154 8.89464C32.4539 8.89017 32.0925 8.88796 31.731 8.88827ZM49.8491 9.81139C45.9796 18.0059 43.2313 24.5726 42.7808 31.6618C45.2855 23.3115 50.1269 15.8261 55.6438 11.017C53.7288 10.5393 51.7957 10.1371 49.8491 9.81139ZM12.979 12.1275C10.634 12.611 8.34325 13.2248 6.1275 14.0728C7.20575 15.0078 9.155 16.7471 11.52 19.0589C12.6085 17.9385 13.7186 16.8316 14.8765 15.8251C14.2632 14.5828 13.6307 13.3501 12.979 12.1275ZM30.7319 13.0628C29.0294 13.0545 27.2866 13.1033 25.5376 13.2244C25.3541 14.9346 24.3426 16.5346 23.1345 18.1081C25.0634 22.6668 26.7293 27.3185 28.229 32.2574C30.5259 32.9349 32.7983 33.7358 34.639 34.6954C33.9553 29.3881 34.0488 23.95 34.9365 18.6319C33.3258 16.9681 32.4869 15.1206 32.4196 13.0894C31.8572 13.0744 31.2945 13.0655 30.7319 13.0628ZM53.4841 16.4359C50.3929 20.0984 47.669 24.6855 45.8129 29.6749C49.2209 24.8271 53.4116 21.0459 57.8725 18.3749C56.4192 17.7073 54.9562 17.0609 53.4841 16.4359ZM15.8916 17.9308C14.0674 19.5793 12.2649 21.5579 10.3878 23.4429C14.4239 25.8418 17.8616 28.6826 20.666 31.9004C20.8401 31.8346 21.016 31.7755 21.1929 31.7216C19.8806 27.2096 18.0823 22.5925 15.8916 17.9308ZM45.065 33.5248C43.0154 35.9983 41.0858 37.3041 38.4288 38.346C38.7276 39.4985 38.2838 40.8216 37.262 41.8336C36.661 42.4288 35.9058 43.1071 34.8015 43.548C34.9608 43.6423 35.1234 43.731 35.289 43.8139C36.8345 44.5851 39.5649 44.3364 42.1015 43.1828C44.6303 42.0328 46.8893 40.0463 47.7265 38.0339C48.1461 36.9026 47.8465 36.3126 47.1119 35.4474C46.5889 34.8318 45.825 34.2111 45.065 33.5249V33.5248ZM23.8051 33.598C22.4658 33.5858 21.1055 33.9723 19.9814 34.818C18.3826 36.0209 17.1501 38.166 17.1391 41.8098V41.8348L17.1379 41.8598C16.7729 49.5324 17.3379 53.0723 18.4573 54.9929C19.4453 56.6881 21.0885 57.4996 23.4923 58.9921C23.6068 58.6914 23.726 58.3215 23.8379 57.8549C24.1225 56.6675 24.358 55.0368 24.5073 53.233C24.8059 49.6258 24.7623 45.2943 24.2629 42.1774L23.999 40.5286L25.626 40.903C29.5779 41.8121 31.8385 41.9195 33.151 41.688C34.4638 41.4563 34.9086 40.9976 35.6786 40.235C36.4024 39.5185 36.3889 39.2606 36.2356 38.8574C36.0823 38.454 35.467 37.7893 34.4231 37.1533C32.3353 35.8813 28.7875 34.7019 25.4714 33.8224C24.9275 33.6785 24.3677 33.6031 23.8051 33.598ZM47.4426 42.275C46.191 43.4943 44.6508 44.4951 43.033 45.2309C40.4101 46.4236 37.5251 46.9693 35.1316 46.175C34.2866 46.4895 33.7958 46.8509 33.5481 47.15C33.2084 47.5605 33.1871 47.8625 33.3023 48.295C33.4174 48.7275 33.7604 49.241 34.1846 49.6105C34.6088 49.98 35.1129 50.172 35.3045 50.181C41.1538 50.4588 43.6853 48.7801 46.8391 46.8331C47.7589 46.2654 48.1109 45.1153 48.0228 43.9668C47.9786 43.3925 47.8115 42.8529 47.6186 42.513C47.5707 42.4263 47.5115 42.3463 47.4426 42.275ZM26.6693 43.412C27.0101 46.5455 27.0158 50.2013 26.7495 53.4186C26.5936 55.3026 26.3526 57.016 26.0259 58.3793C25.8838 58.9725 25.7274 59.4985 25.5384 59.9616L43.8755 59.1535C43.6685 58.3849 43.4575 57.613 43.2466 56.8408C42.5421 57.0753 41.822 57.2601 41.0916 57.3938L41.0971 57.485L40.0576 57.5498C39.4175 57.6265 38.7511 57.6689 38.0598 57.6738L27.5773 58.325L27.8889 56.8741C28.8823 52.2484 28.9739 48.1755 28.3611 43.7199C27.7952 43.6283 27.2311 43.5256 26.6691 43.412H26.6693ZM30.6658 43.9975C31.1593 47.9891 31.0999 51.7988 30.365 55.8975L32.773 55.748C32.3953 55.1908 32.1358 54.5622 32.0105 53.9008C31.8485 53.0408 31.9386 52.0835 32.5013 51.292C32.5261 51.2569 32.553 51.2233 32.5796 51.1894C31.9239 50.5838 31.3761 49.8066 31.1279 48.8739C30.8636 47.8809 31.0286 46.6651 31.815 45.7151C32.0749 45.4014 32.389 45.1181 32.7579 44.8631C32.4316 44.6031 32.1456 44.3275 31.8986 44.0404C31.5156 44.043 31.1055 44.0288 30.6658 43.9975ZM47.249 49.2206C44.317 51.0023 41.0228 52.7051 35.1978 52.4286C35.0076 52.4193 34.8187 52.3936 34.633 52.3518C34.4789 52.4209 34.3966 52.5088 34.3353 52.5951C34.2149 52.7645 34.1438 53.0701 34.2216 53.4843C34.3776 54.3126 35.1623 55.2204 35.8929 55.3054C41.066 55.907 44.6403 54.2146 46.8105 52.2458C47.8105 51.3385 47.819 50.7583 47.6718 50.1269C47.598 49.8115 47.4355 49.5058 47.249 49.2206ZM46.4136 55.3534C46.0663 55.571 45.7099 55.7737 45.3453 55.9609C45.5515 56.7173 45.7583 57.4736 45.9624 58.2301L48.4524 57.7836C47.8099 57.2353 47.3071 56.6644 46.9036 56.0966C46.7234 55.843 46.5645 55.5965 46.4136 55.3534Z" fill="#006105"/>
</svg>
