<svg width="64" height="64" viewBox="0 0 64 64" fill="none" xmlns="http://www.w3.org/2000/svg">
<path d="M32 56.2319C38.4267 56.2319 44.5902 53.6789 49.1346 49.1346C53.679 44.5902 56.232 38.4267 56.232 31.9999C56.232 25.5732 53.679 19.4097 49.1346 14.8653C44.5902 10.321 38.4267 7.76794 32 7.76794C25.5733 7.76794 19.4098 10.321 14.8654 14.8653C10.321 19.4097 7.76801 25.5732 7.76801 31.9999C7.76801 38.4267 10.321 44.5902 14.8654 49.1346C19.4098 53.6789 25.5733 56.2319 32 56.2319Z" fill="#66E1FF"/>
<path d="M32 61.3333C48.2 61.3333 61.3333 48.2 61.3333 32C61.3333 15.8 48.2 2.66663 32 2.66663C15.8 2.66663 2.66666 15.8 2.66666 32C2.66666 48.2 15.8 61.3333 32 61.3333Z" stroke="#191919" stroke-width="2.66667" stroke-linecap="round" stroke-linejoin="round"/>
<path d="M32 40.928C34.3678 40.928 36.6387 39.9874 38.313 38.3131C39.9874 36.6387 40.928 34.3679 40.928 32C40.928 29.6322 39.9874 27.3613 38.313 25.687C36.6387 24.0126 34.3678 23.072 32 23.072C29.6321 23.072 27.3613 24.0126 25.6869 25.687C24.0126 27.3613 23.072 29.6322 23.072 32C23.072 34.3679 24.0126 36.6387 25.6869 38.3131C27.3613 39.9874 29.6321 40.928 32 40.928Z" stroke="#191919" stroke-width="2.66667" stroke-linecap="round" stroke-linejoin="round"/>
<path d="M40.9253 47.4666C38.5529 48.8361 35.8971 49.6415 33.1636 49.8204C30.4301 49.9994 27.692 49.5471 25.1613 48.4985C22.6305 47.45 20.3749 45.8333 18.5689 43.7735C16.763 41.7138 15.455 39.2662 14.7463 36.6201C14.0377 33.9739 13.9472 31.2003 14.482 28.5136C15.0167 25.8269 16.1624 23.2993 17.8303 21.1262C19.4983 18.9532 21.6437 17.193 24.1008 15.9817C26.5578 14.7705 29.2606 14.1408 32 14.1412C56.232 14.1412 54.96 40.9252 44.7546 40.9252C40.928 40.9252 40.928 38.3732 40.928 37.0986V24.3466" stroke="#191919" stroke-width="2.66667" stroke-linecap="round" stroke-linejoin="round"/>
</svg>
