<svg width="64" height="64" viewBox="0 0 64 64" fill="none" xmlns="http://www.w3.org/2000/svg">
<g clip-path="url(#clip0_43_5)">
<path d="M63.675 29.805C63.675 27.625 61.895 25.8449 59.715 25.8449H42.115C39.935 25.8449 38.155 24.065 38.155 21.885V4.28495C38.155 2.10495 36.375 0.324951 34.195 0.324951H29.805C27.625 0.324951 25.845 2.10495 25.845 4.28495V21.8799C25.845 24.0599 24.065 25.84 21.885 25.84H4.285C2.105 25.84 0.324997 27.6199 0.324997 29.7999V34.195C0.324997 36.375 2.105 38.1549 4.285 38.1549H21.885C24.065 38.1549 25.845 39.935 25.845 42.115V59.7099C25.845 61.8899 27.625 63.6699 29.805 63.6699H34.195C36.375 63.6699 38.155 61.8899 38.155 59.7099V42.115C38.155 39.935 39.935 38.1549 42.115 38.1549H59.715C61.895 38.1549 63.675 36.375 63.675 34.195V29.805Z" fill="#ED6C30"/>
</g>
<defs>
<clipPath id="clip0_43_5">
<rect width="64" height="64" fill="white"/>
</clipPath>
</defs>
</svg>
