<svg width="64" height="64" viewBox="0 0 64 64" fill="none" xmlns="http://www.w3.org/2000/svg">
<path d="M48.625 5.10498C50.9375 5.10498 53 7.45373 53 10.6087C53 13.775 50.9375 16.1125 48.625 16.1125C46.3125 16.1125 44.25 13.775 44.25 10.6087C44.25 7.45373 46.3125 5.10498 48.625 5.10498ZM32.0125 5.10498C34.3125 5.10498 36.3875 7.45373 36.3875 10.6087C36.3875 13.775 34.3125 16.1125 32.0125 16.1125C29.7 16.1125 27.625 13.775 27.625 10.6087C27.625 7.45373 29.7 5.10498 32.0125 5.10498ZM15.3875 5.10498C17.7 5.10498 19.7625 7.45373 19.7625 10.6087C19.7625 13.775 17.7 16.1125 15.3875 16.1125C13.075 16.1125 11.0013 13.775 11.0013 10.6087C11.0013 7.45373 13.075 5.10498 15.3875 5.10498ZM32.0125 18.7375C40.0125 18.9875 46.7625 18.9875 54.8625 19.2625C58.725 21.4875 60.5125 32.8875 60.4 36.85L58.2 39.0625C57.2375 33.7125 56.025 26.575 54.0125 24.9875V35.9375L54.525 58.9H51.75L49.6625 35.8125H47.4125L45.325 58.9H42.5375L43.0625 35.9375L42.0625 24.875H38.4L37.5 35.9L38.025 58.8625H35.2375L33.1375 35.775H30.8875L28.7875 58.8625H26.0125L26.5375 35.9L25.625 24.875H21.9625L20.9625 35.9375L21.4875 58.9H18.7L16.6125 35.8125H14.3625L12.2513 58.9H9.47625L10.0013 35.9375V24.9875C7.97625 26.575 6.76375 33.7125 5.80125 39.0625L3.60125 36.85C3.48875 32.8875 5.28875 21.4875 9.13875 19.2625C17.2625 18.9875 24.0125 18.9875 32.0125 18.7375Z" fill="#4a0303"/>
</svg>
