<?xml version="1.0" standalone="no"?>
<!DOCTYPE svg PUBLIC "-//W3C//DTD SVG 20010904//EN"
 "http://www.w3.org/TR/2001/REC-SVG-20010904/DTD/svg10.dtd">
<svg version="1.0" xmlns="http://www.w3.org/2000/svg"
 width="1024.000000pt" height="1024.000000pt" viewBox="0 0 1024.000000 1024.000000"
 preserveAspectRatio="xMidYMid meet">
<metadata>
Created by potrace 1.16, written by Peter Selinger 2001-2019
</metadata>
<g transform="translate(0.000000,1024.000000) scale(0.100000,-0.100000)"
fill="#de333b" stroke="none">
<path d="M4722 8259 c-47 -14 -55 -43 -49 -179 6 -121 28 -241 77 -425 57
-213 58 -250 3 -308 -61 -64 -65 -62 -208 66 -174 156 -248 192 -400 192 -126
0 -190 -32 -306 -152 -263 -273 -641 -1023 -1411 -2798 -536 -1236 -977 -2287
-1032 -2465 -30 -93 -28 -122 10 -146 92 -61 287 -68 1714 -60 3126 17 4130
50 5230 172 490 54 624 90 687 183 39 57 48 107 48 266 0 137 -3 161 -32 272
-86 322 -249 730 -492 1229 -307 627 -599 1102 -829 1346 -92 97 -107 123
-122 209 -16 98 -26 580 -12 606 10 17 24 22 84 28 163 14 357 58 579 131 386
126 582 311 500 473 -38 73 -120 129 -303 206 -38 15 -68 30 -68 32 0 2 38 46
84 97 107 119 176 212 176 240 0 29 -51 134 -85 175 -16 18 -44 40 -62 47 -92
39 -744 61 -983 34 -191 -21 -257 -52 -281 -129 -25 -82 -22 -696 10 -1790 l6
-225 -59 -75 c-53 -70 -76 -104 -148 -216 -33 -53 -215 -401 -364 -697 -65
-131 -127 -248 -136 -260 -27 -36 -24 -42 -188 277 -173 336 -340 640 -535
975 -202 349 -268 471 -257 482 13 13 215 58 260 58 56 0 88 -17 197 -105 138
-112 191 -134 282 -120 31 4 55 16 75 35 25 25 28 36 28 90 0 79 -19 116 -116
221 -127 138 -132 154 -84 249 40 79 75 186 96 295 24 123 47 145 212 210 152
59 183 79 200 130 20 59 10 164 -17 186 -41 34 -236 33 -325 -1 -41 -15 -98
-12 -128 8 -27 18 -137 123 -251 239 l-57 59 81 179 c91 200 102 248 71 305
-38 69 -137 99 -217 66 -41 -17 -90 -90 -185 -271 -73 -139 -100 -181 -130
-202 -14 -10 -63 -18 -148 -24 -70 -4 -152 -15 -182 -23 -76 -22 -97 -20 -116
9 -9 13 -40 120 -69 237 -55 221 -77 291 -103 321 -32 37 -149 56 -220 36z
m3300 -931 c-67 -85 -93 -140 -99 -209 -5 -47 -1 -66 20 -112 27 -61 86 -125
156 -172 25 -17 46 -36 49 -42 6 -20 -34 -31 -285 -80 -220 -44 -233 -45 -257
-30 -14 10 -30 33 -35 54 -16 56 -14 244 6 461 l17 192 239 0 239 0 -50 -62z
m-2357 -10 c207 -68 308 -234 278 -455 -22 -163 -85 -266 -200 -325 -97 -50
-149 -60 -318 -62 -142 -2 -150 -1 -170 20 -37 40 -246 353 -276 415 -69 139
-37 196 186 323 196 112 342 136 500 84z m-1408 -161 c207 -217 470 -557 710
-917 212 -318 393 -623 393 -661 0 -19 -61 -4 -147 35 -104 46 -162 60 -236
54 -93 -8 -165 -49 -285 -163 l-102 -97 -68 55 c-206 167 -315 213 -435 182
-81 -21 -126 -50 -242 -154 -131 -119 -136 -121 -177 -89 -52 40 -348 329
-348 340 0 5 110 230 245 500 300 597 344 681 426 803 49 74 158 205 170 205
4 0 47 -42 96 -93z m-953 -1899 c23 -24 62 -67 86 -97 51 -60 144 -130 208
-154 23 -10 70 -17 104 -17 51 0 71 5 122 35 34 19 93 59 131 90 39 30 93 73
121 95 57 45 99 61 129 50 11 -4 48 -35 81 -68 97 -95 238 -162 339 -162 53 0
119 34 208 108 168 140 168 140 282 97 88 -33 163 -45 326 -54 134 -7 139 -8
176 -37 52 -42 126 -163 281 -459 72 -137 162 -311 202 -385 39 -74 104 -201
145 -282 l75 -148 -156 -305 c-281 -549 -312 -633 -264 -710 38 -62 154 -91
213 -52 49 32 126 159 345 572 302 571 364 682 475 850 66 100 78 112 119 130
51 20 124 19 275 -6 224 -37 358 -17 554 81 l80 41 63 -133 c35 -73 98 -205
141 -293 224 -467 453 -997 525 -1215 56 -170 59 -230 13 -244 -302 -85 -2514
-220 -3990 -242 l-453 -7 0 200 c0 110 3 202 6 206 3 3 29 -9 57 -27 138 -88
240 -122 320 -104 75 16 107 57 107 137 0 54 -1 56 -59 112 -66 65 -216 179
-361 274 l-98 65 -11 67 c-24 153 -43 302 -39 317 2 11 21 1 72 -43 176 -150
280 -167 346 -59 58 96 -3 222 -218 451 -206 220 -329 317 -400 317 -83 0
-175 -82 -342 -305 -185 -248 -250 -367 -250 -462 0 -110 104 -177 199 -129
17 9 61 49 99 88 37 39 84 89 105 111 30 31 40 38 50 28 16 -16 23 -303 8
-351 -14 -47 -50 -83 -202 -201 -205 -159 -256 -231 -230 -321 17 -56 45 -86
94 -99 75 -20 147 3 270 87 112 77 112 78 112 -164 l0 -187 -545 -8 c-300 -4
-752 -6 -1005 -4 -470 3 -515 6 -515 41 0 19 45 134 117 296 113 256 257 578
305 685 155 339 412 896 518 1120 25 55 69 147 96 205 26 58 96 202 155 320
88 178 114 222 152 258 26 23 56 42 68 42 12 0 40 -19 63 -42z m4218 -136 c64
-78 248 -332 248 -342 0 -14 -116 -68 -168 -79 -111 -23 -337 -9 -389 25 -32
20 -29 43 17 133 96 191 198 345 224 335 7 -3 38 -35 68 -72z"/>
</g>
</svg>
