<svg width="64" height="64" viewBox="0 0 64 64" fill="none" xmlns="http://www.w3.org/2000/svg">
<path d="M45.0477 44.8L42.5811 49.4381L54.6579 47.4637C52.2208 46.2413 48.9216 45.3677 45.0477 44.8ZM13.9373 45.8112C8.34367 47.2864 4.79999 49.7037 4.79999 53.2941C4.80229 54.0671 4.97125 54.8305 5.29535 55.5322L24.6777 52.3642L13.9373 45.8112ZM58.7456 51.2L31.7696 55.5969L38.8838 63.6903C50.5664 62.6439 59.2 58.9121 59.2 53.2941C59.2 52.5453 59.0387 51.849 58.7456 51.2ZM27.2115 56.3559L8.98431 59.3351C13.8022 62.3194 22.3059 64 32 64C32.5875 64 33.1616 63.9834 33.7401 63.9712L27.2115 56.3559Z" fill="#F24822"/>
<path d="M32.0013 0C21.5693 0 13.0099 8.53312 13.0099 18.9414C13.0099 22.9427 14.2816 26.6701 16.4288 29.735L28.7386 51.015L28.791 51.0835C29.2768 51.7178 29.751 52.2182 30.3078 52.5862C30.8646 52.9549 31.5558 53.175 32.2342 53.1072C33.5898 52.9715 34.4198 52.0141 35.2077 50.9466L35.2499 50.8915L48.8397 27.7613L48.8474 27.7466C49.1661 27.1706 49.4016 26.5843 49.6013 26.0134C50.5171 23.7681 50.9888 21.3664 50.9901 18.9414C50.9901 8.53312 42.4333 0 32.0013 0ZM32.0013 10.9088C36.5267 10.9088 40.0589 14.4346 40.0589 18.9408C40.0589 23.4483 36.5267 26.9728 32.0013 26.9728C27.4752 26.9728 23.9411 23.4477 23.9411 18.9408C23.9411 14.4352 27.4758 10.9088 32.0013 10.9088Z" fill="#F24822"/>
</svg>
