<svg width="610" height="562" viewBox="0 0 610 562" fill="none" xmlns="http://www.w3.org/2000/svg">
<path d="M279.541 0.547456C252.608 2.14746 228.208 7.74746 197.141 19.3475C121.274 47.6141 63.8077 97.2141 30.341 163.214C3.40765 216.414 -5.25901 267.481 3.00765 324.147C8.47432 362.147 31.941 417.881 52.4743 442.147C62.6077 454.147 92.341 483.347 104.208 492.947C147.008 527.481 197.674 549.881 253.541 558.681C272.208 561.614 311.941 562.547 330.474 560.681C445.141 548.281 540.474 484.147 585.941 388.814C594.608 370.414 602.874 345.881 605.541 329.881C610.074 304.147 610.341 249.081 606.208 225.614C601.408 198.681 583.008 156.947 561.408 124.147C530.874 78.1475 471.674 35.2141 410.208 14.8141C388.341 7.48079 376.874 5.21412 350.874 2.68079C324.208 0.147456 299.808 -0.652544 279.541 0.547456ZM320.074 35.2141C326.741 37.7475 336.074 48.1475 348.874 67.4808C356.074 78.2808 364.874 92.8141 368.341 99.8808C373.941 110.681 374.608 112.814 372.874 113.881C367.808 117.214 348.208 121.481 324.074 124.547C288.741 129.081 220.474 131.481 211.808 128.414C203.274 125.481 204.208 121.881 222.608 85.3475C234.208 62.4141 237.141 57.6141 244.074 50.6808C249.808 44.9475 254.208 41.7475 258.874 40.1475C272.608 35.3475 312.208 32.1475 320.074 35.2141ZM388.208 45.0808C404.874 49.6141 445.941 67.2141 453.408 73.0808C455.541 74.8141 455.674 75.4808 454.074 77.3475C449.541 82.8141 412.874 102.681 409.674 101.481C408.608 101.081 406.341 98.1475 404.608 94.9475C402.741 91.7475 395.808 79.7475 389.008 68.0141C382.341 56.4141 376.874 46.1475 376.874 45.0808C376.874 42.8141 379.674 42.6808 388.208 45.0808ZM195.541 59.7475C195.541 62.5475 169.141 120.947 167.408 122.014C165.541 123.081 152.741 120.947 139.008 117.081C123.274 112.681 118.208 110.414 118.208 108.014C118.208 102.947 150.474 80.2808 176.208 67.2141C190.474 60.0141 195.541 58.1475 195.541 59.7475ZM502.074 109.347C529.808 135.347 551.141 168.414 562.874 203.481C568.074 219.347 568.741 225.347 565.274 226.414C562.474 227.214 518.874 235.481 501.541 238.414C481.141 241.881 457.941 244.681 455.408 243.881C452.474 242.947 451.274 239.081 446.208 214.947C443.941 204.147 438.208 182.014 433.408 165.881C428.341 149.081 425.008 135.881 425.674 135.214C426.341 134.681 434.741 130.014 444.208 125.081C462.341 115.614 471.274 110.147 480.208 103.347C483.141 101.081 486.874 99.2141 488.474 99.2141C490.208 99.2141 495.408 103.081 502.074 109.347ZM109.274 142.414C131.941 150.147 145.808 153.881 151.008 153.881C158.608 153.881 158.741 155.214 153.541 182.947C148.208 212.547 144.874 237.614 144.874 249.481C144.874 257.481 144.741 257.881 141.274 258.681C139.274 259.214 117.541 259.081 92.8743 258.281C41.8077 256.681 38.2077 256.014 38.2077 248.281C38.341 235.747 51.8077 196.014 63.0077 175.481C71.4077 160.281 88.4743 136.547 91.0077 136.547C91.2743 136.547 99.541 139.214 109.274 142.414ZM393.674 155.881C397.941 165.214 412.874 223.881 413.808 235.347C414.474 243.747 414.341 244.414 411.274 246.414C409.408 247.614 402.741 249.081 395.408 249.747C371.274 252.281 231.941 257.881 195.274 257.881H179.541V251.214C179.541 237.214 185.541 197.747 192.474 166.281L193.141 163.347L245.408 163.614C310.608 163.881 338.341 161.081 374.874 150.681C378.608 149.614 383.541 148.681 385.941 148.681C390.074 148.547 390.608 149.081 393.674 155.881ZM574.208 265.481C576.608 268.681 576.874 270.147 576.208 278.414C574.208 302.547 568.341 333.481 562.741 350.947C555.808 372.281 538.208 402.947 519.141 426.947C508.874 439.881 495.274 455.214 494.074 455.214C491.408 455.214 447.541 428.014 446.874 426.014C446.474 424.681 447.008 418.947 448.074 413.081C449.274 407.347 450.741 396.547 451.541 389.214C453.408 371.081 456.874 309.347 456.874 294.281C456.874 287.614 457.408 281.747 457.941 281.347C458.608 280.947 468.074 279.481 479.008 277.881C510.608 273.481 546.074 267.347 556.208 264.681C569.008 261.214 570.874 261.347 574.208 265.481ZM421.274 311.881C421.008 338.414 419.541 360.281 416.074 385.881C413.408 405.747 412.074 410.814 409.008 411.881C407.541 412.281 396.074 410.014 383.408 406.681C349.541 398.014 331.808 395.881 294.208 395.881C261.408 396.014 239.808 397.614 211.141 402.014C201.674 403.614 193.808 404.547 193.541 404.281C192.874 403.614 183.674 356.414 182.341 345.881C180.608 333.747 178.208 305.881 178.208 298.414V292.947L233.941 292.147C264.474 291.747 301.008 290.681 314.874 289.881C352.608 287.747 391.808 286.281 407.541 286.414L421.541 286.547L421.274 311.881ZM80.2077 291.214C115.408 293.214 137.941 295.481 140.208 297.081C141.541 298.147 142.741 304.547 144.208 319.881C147.808 357.081 148.741 364.681 153.674 389.481C157.408 408.281 158.208 414.281 157.008 415.747C156.208 416.814 152.608 418.281 149.141 419.214C145.674 420.014 132.208 424.947 119.141 430.147C98.2077 438.681 95.2743 439.481 93.8077 437.614C58.8743 393.081 41.4077 352.547 36.8743 305.081C36.2077 297.081 35.541 290.147 35.541 289.481C35.541 288.947 40.2077 288.814 45.941 289.214C51.541 289.614 67.0077 290.547 80.2077 291.214ZM326.874 432.681C350.741 435.081 386.074 443.747 395.808 449.481C399.274 451.614 400.208 452.947 399.941 456.014C399.541 461.347 384.074 491.881 374.341 506.681C367.008 517.881 365.808 518.947 360.608 520.281C352.874 522.281 326.074 524.281 293.541 525.214L266.874 526.147L254.474 510.281C232.741 482.814 211.541 448.547 211.541 441.081C211.541 437.747 217.541 434.814 227.541 433.214C246.208 430.147 298.208 429.881 326.874 432.681ZM173.941 452.947C175.541 454.414 180.208 462.014 184.341 469.747C188.474 477.481 195.408 489.347 199.674 496.014C204.074 502.681 207.541 508.547 207.541 508.947C207.541 511.747 198.874 508.814 181.008 499.881C152.074 485.614 122.874 467.347 123.941 464.147C124.341 462.814 148.208 453.214 157.541 450.547C165.274 448.547 169.674 449.081 173.941 452.947ZM448.341 470.681C453.008 474.014 456.874 477.614 456.874 478.681C456.874 480.814 445.141 488.947 432.074 495.881C424.741 499.747 422.741 500.414 422.474 498.814C422.074 496.947 431.141 472.014 434.474 465.481C436.074 462.414 437.541 462.947 448.341 470.681Z" fill="#DE333B"/>
</svg>
