<svg width="24" height="24" viewBox="0 0 65 64" fill="none" xmlns="http://www.w3.org/2000/svg">
<path d="M11.231 48.6861C10.6851 48.6945 10.1431 48.5943 9.63631 48.3912C9.12957 48.1881 8.66828 47.8863 8.2793 47.5032C7.89033 47.1202 7.58144 46.6636 7.37063 46.16C7.15981 45.6564 7.05127 45.116 7.05134 44.57C7.05141 44.0241 7.16007 43.4837 7.37101 42.9801C7.58195 42.4766 7.89095 42.0201 8.28002 41.6371C8.66908 41.2542 9.13044 40.9525 9.63724 40.7495C10.144 40.5466 10.6861 40.4465 11.232 40.4551C12.3124 40.472 13.3428 40.9131 14.1007 41.6832C14.8587 42.4533 15.2835 43.4905 15.2833 44.571C15.2832 45.6516 14.8582 46.6887 14.1 47.4586C13.3419 48.2285 12.3114 48.6693 11.231 48.6861ZM2.94299 63.612V55.548C2.94299 52.64 5.33199 50.2771 8.24299 50.2771H13.926C16.837 50.2771 19.437 52.64 19.437 55.548V63.612H2.94299ZM53.898 48.3371C54.9893 48.3357 56.0355 47.9015 56.807 47.1296C57.5785 46.3578 58.0122 45.3114 58.013 44.2201C58.0251 43.672 57.9276 43.1271 57.7262 42.6173C57.5248 42.1075 57.2237 41.643 56.8403 41.2511C56.457 40.8593 55.9993 40.5479 55.494 40.3354C54.9888 40.1228 54.4461 40.0133 53.898 40.0133C53.3498 40.0133 52.8072 40.1228 52.3019 40.3354C51.7967 40.5479 51.3389 40.8593 50.9556 41.2511C50.5723 41.643 50.2712 42.1075 50.0698 42.6173C49.8684 43.1271 49.7709 43.672 49.783 44.2201C49.7838 45.3114 50.2175 46.3578 50.989 47.1296C51.7605 47.9015 52.8067 48.3357 53.898 48.3371ZM62.182 63.612V55.548C62.182 52.64 59.793 50.2771 56.88 50.2771H51.203C48.287 50.2771 45.691 52.64 45.691 55.548V63.612H62.182ZM32.557 48.6641C30.257 48.6641 28.394 46.815 28.394 44.536C28.394 42.257 30.257 40.4071 32.557 40.4071C34.855 40.4071 36.718 42.256 36.718 44.536C36.718 46.816 34.856 48.6641 32.557 48.6641ZM22.532 63.612L25.808 54.687C27.12 50.128 30.941 50.2691 30.941 50.2691H34.184C34.184 50.2691 38.003 50.129 39.317 54.687L42.593 63.612H22.532ZM32.557 35.196V25.431L30.936 23.81V33.57H6.41299V2.52205H30.936V18.472L32.557 20.092V0.899048H4.79799V35.195L32.557 35.196Z" fill="#8c41e7"/>
<path d="M18.436 9.19497C19.0001 9.17084 19.5331 8.92978 19.9237 8.52209C20.3144 8.1144 20.5324 7.57159 20.5324 7.00697C20.5324 6.44235 20.3144 5.89954 19.9237 5.49185C19.5331 5.08416 19.0001 4.84309 18.436 4.81897C17.8557 4.81897 17.2992 5.04949 16.8889 5.45982C16.4785 5.87015 16.248 6.42668 16.248 7.00697C16.248 7.58726 16.4785 8.14379 16.8889 8.55412C17.2992 8.96445 17.8557 9.19497 18.436 9.19497ZM25.661 18.288C25.661 18.288 23.866 12.191 23.863 12.186C23.148 9.81297 21.146 9.88397 21.146 9.88397H15.73C15.73 9.88397 13.725 9.81297 13.011 12.186L11.216 18.288C11.1789 18.4062 11.1657 18.5307 11.1772 18.6542C11.1887 18.7776 11.2247 18.8975 11.2831 19.0069C11.3415 19.1162 11.4211 19.2128 11.5172 19.2911C11.6134 19.3693 11.7242 19.4276 11.8431 19.4626C11.9621 19.4976 12.0868 19.5084 12.21 19.4947C12.3332 19.4809 12.4524 19.4427 12.5606 19.3823C12.6689 19.3219 12.7641 19.2405 12.8405 19.1429C12.917 19.0454 12.9732 18.9335 13.006 18.814L14.72 12.979L14.724 12.981L15.488 12.979V19.619L12.471 29.973C12.4151 30.1638 12.4044 30.365 12.4397 30.5606C12.4751 30.7563 12.5556 30.941 12.6747 31.1002C12.7939 31.2593 12.9485 31.3885 13.1263 31.4775C13.3041 31.5665 13.5002 31.6129 13.699 31.613C14.254 31.613 14.766 31.25 14.93 30.692L17.91 20.468H18.965L21.945 30.692C21.9922 30.8533 22.0707 31.0038 22.1761 31.1347C22.2814 31.2657 22.4116 31.3747 22.559 31.4554C22.7065 31.5361 22.8684 31.5869 23.0355 31.605C23.2026 31.6232 23.3717 31.6082 23.533 31.561C23.6944 31.5139 23.845 31.4354 23.9761 31.3301C24.1072 31.2248 24.2162 31.0947 24.297 30.9472C24.3778 30.7998 24.4288 30.6378 24.4469 30.4706C24.4651 30.3035 24.4502 30.1344 24.403 29.973L21.386 19.624V12.98L22.15 12.982L22.154 12.98L23.87 18.815C23.9398 19.0523 24.1009 19.2523 24.3181 19.3708C24.4256 19.4295 24.5437 19.4664 24.6655 19.4795C24.7873 19.4926 24.9105 19.4815 25.028 19.447C25.1455 19.4124 25.2551 19.3551 25.3505 19.2782C25.4459 19.2013 25.5251 19.1064 25.5838 18.9989C25.6425 18.8913 25.6794 18.7733 25.6925 18.6515C25.7056 18.5297 25.6945 18.4065 25.66 18.289L25.661 18.288ZM53.879 17.369C52.8049 17.3453 51.7828 16.902 51.0316 16.1339C50.2803 15.3659 49.8597 14.3343 49.8597 13.26C49.8597 12.1856 50.2803 11.154 51.0316 10.386C51.7828 9.61799 52.8049 9.17467 53.879 9.15097C54.4187 9.15057 54.9533 9.25667 55.4519 9.46319C55.9506 9.66971 56.4036 9.97259 56.785 10.3545C57.1665 10.7364 57.4688 11.1898 57.6747 11.6887C57.8806 12.1876 57.9861 12.7222 57.985 13.262C57.9859 13.8015 57.8804 14.3359 57.6743 14.8345C57.4683 15.3331 57.1659 15.7862 56.7845 16.1678C56.403 16.5493 55.9501 16.8518 55.4515 17.0579C54.9529 17.2641 54.4185 17.3698 53.879 17.369ZM53.879 23.48C53.879 23.48 54.876 23.609 55.486 22.764C56.038 21.992 56.079 19.434 56.083 18.971H51.671C51.656 20.812 51.87 22.154 52.31 22.83C52.754 23.52 53.879 23.481 53.879 23.481V23.48Z" fill="#cc0505"/>
<path d="M35.975 27.103C35.824 27.351 35.589 27.855 35.589 28.173C35.589 29.133 36.364 29.904 37.321 29.904H43.018C43.665 29.904 44.515 29.643 44.878 29.099C46.103 27.28 47.398 25.363 47.78 24.79V35.562H62.128V24.515C62.128 21.626 59.871 19.025 57.201 19.025C57.208 20.381 57.026 22.633 56.232 23.619C55.403 24.626 54.427 24.538 54.427 24.538V28.741C54.7345 28.8665 54.9888 29.0952 55.1461 29.3877C55.3035 29.6802 55.3541 30.0184 55.2892 30.3441C55.2244 30.6699 55.0482 30.9629 54.7909 31.173C54.5336 31.383 54.2111 31.4968 53.879 31.495C53.6909 31.4952 53.5046 31.4582 53.3308 31.3862C53.1569 31.3142 52.9991 31.2086 52.8661 31.0755C52.7332 30.9424 52.6278 30.7843 52.5561 30.6104C52.4843 30.4365 52.4476 30.2502 52.448 30.062C52.448 29.467 52.81 28.957 53.328 28.741V24.519C53.328 24.519 52.476 24.589 51.671 23.782C50.596 22.662 50.556 19.488 50.558 18.969H50.297C49.4293 18.9681 48.5748 19.1818 47.8097 19.5911C47.0446 20.0004 46.3927 20.5927 45.912 21.315L42.501 26.462L37.326 26.46L30.018 19.151C29.9529 19.0853 29.8754 19.0331 29.79 18.9975C29.7046 18.9618 29.613 18.9435 29.5205 18.9435C29.428 18.9435 29.3364 18.9618 29.251 18.9975C29.1656 19.0331 29.0881 19.0853 29.023 19.151C28.9573 19.2163 28.9051 19.2939 28.8694 19.3794C28.8337 19.4648 28.8153 19.5565 28.8151 19.6491C28.8149 19.7417 28.833 19.8335 28.8683 19.9191C28.9037 20.0047 28.9555 20.0825 29.021 20.148L35.976 27.104L35.975 27.103Z" fill="#cc0505"/>
</svg>
