<?xml version="1.0" standalone="no"?>
<!DOCTYPE svg PUBLIC "-//W3C//DTD SVG 20010904//EN"
 "http://www.w3.org/TR/2001/REC-SVG-20010904/DTD/svg10.dtd">
<svg version="1.0" xmlns="http://www.w3.org/2000/svg"
 width="1024.000000pt" height="1024.000000pt" viewBox="0 0 1024.000000 1024.000000"
 preserveAspectRatio="xMidYMid meet">
<metadata>
Created by potrace 1.16, written by Peter Selinger 2001-2019
</metadata>
<g transform="translate(0.000000,1024.000000) scale(0.100000,-0.100000)"
fill="#de333b" stroke="none">
<path d="M4894 9171 c-22 -10 -70 -37 -107 -60 -94 -60 -108 -92 -108 -248 1
-128 22 -403 46 -598 38 -298 100 -395 250 -395 83 0 118 29 142 120 16 57 18
118 18 520 0 519 -2 535 -68 608 -43 46 -84 72 -114 72 -10 0 -36 -9 -59 -19z"/>
<path d="M7434 8424 c-79 -53 -174 -160 -344 -389 -159 -215 -197 -268 -344
-489 -154 -232 -192 -302 -182 -339 9 -39 64 -97 111 -118 68 -31 99 -25 157
29 72 67 276 317 490 602 207 276 315 433 333 488 35 99 -55 242 -151 242 -17
0 -49 -12 -70 -26z"/>
<path d="M2902 8404 c-39 -27 -65 -91 -57 -140 15 -100 165 -352 393 -656 139
-186 182 -232 254 -267 69 -35 105 -38 154 -15 72 34 100 165 54 254 -64 126
-406 600 -527 731 -89 95 -209 137 -271 93z"/>
<path d="M4905 7343 c-383 -34 -775 -201 -1100 -468 -332 -273 -592 -700 -705
-1157 -53 -217 -64 -319 -65 -598 0 -274 8 -360 57 -625 52 -284 109 -478 212
-723 171 -404 359 -719 552 -922 39 -41 77 -86 85 -100 10 -19 15 -98 20 -320
4 -175 11 -310 18 -331 17 -54 66 -116 110 -138 21 -11 72 -29 112 -41 111
-30 111 -29 119 -222 8 -167 28 -285 60 -348 25 -50 114 -130 190 -172 82 -46
215 -92 322 -113 113 -22 372 -32 422 -15 50 16 154 114 206 195 81 124 170
374 170 476 0 90 36 129 190 210 134 70 201 131 244 222 44 93 55 153 66 367
13 265 22 290 229 660 128 227 296 566 378 760 201 476 284 893 270 1365 -6
206 -20 327 -57 500 -107 499 -363 916 -731 1190 -274 204 -538 307 -881 345
-90 9 -399 11 -493 3z m575 -422 c145 -25 234 -53 335 -103 493 -246 803 -764
856 -1431 25 -312 -23 -689 -123 -962 -155 -423 -545 -1219 -702 -1433 -64
-86 -93 -102 -187 -102 -79 0 -439 36 -447 45 -3 3 0 139 7 303 39 953 115
1502 246 1777 56 116 99 144 230 145 229 2 426 170 426 363 0 116 -57 193
-188 255 -50 23 -70 27 -148 26 -68 -1 -104 -6 -147 -23 -148 -57 -291 -189
-422 -388 -128 -195 -168 -217 -196 -108 -18 68 -77 163 -165 262 -137 156
-236 213 -408 235 -82 10 -103 9 -163 -5 -116 -29 -175 -83 -193 -180 -19
-103 33 -241 110 -296 33 -23 37 -23 187 -16 107 5 162 3 181 -5 50 -20 143
-187 201 -360 33 -98 64 -265 81 -440 6 -65 13 -431 16 -837 l5 -723 -285 0
-285 0 -97 103 c-119 125 -204 233 -279 352 -319 508 -528 1254 -502 1790 32
631 280 1135 721 1466 88 66 146 101 280 167 142 71 276 117 400 137 132 21
501 14 655 -14z m-575 -4371 c522 -20 852 -36 891 -45 19 -4 20 -9 13 -52 -4
-27 -18 -77 -31 -113 l-23 -65 -708 -3 c-389 -1 -707 -1 -708 0 -4 11 -25 285
-22 291 5 10 -5 10 588 -13z m367 -704 c56 -25 27 -224 -54 -378 -37 -70 -62
-81 -150 -67 -213 34 -349 103 -384 194 -19 50 -13 148 11 195 14 28 69 56
120 64 51 7 439 0 457 -8z"/>
<path d="M1490 7073 c-45 -17 -110 -118 -110 -173 0 -39 44 -94 113 -143 240
-172 841 -497 916 -497 110 0 187 183 114 270 -28 34 -283 206 -418 282 -146
83 -369 196 -457 232 -82 34 -124 42 -158 29z"/>
<path d="M8603 6830 c-223 -111 -598 -325 -765 -435 -205 -135 -243 -187 -199
-273 68 -133 195 -116 566 73 212 108 473 257 590 335 196 133 235 211 145
296 -49 47 -120 94 -142 94 -9 0 -97 -40 -195 -90z"/>
<path d="M1111 5361 c-56 -33 -81 -67 -88 -118 -7 -52 11 -105 49 -149 24 -27
49 -40 127 -64 223 -69 763 -178 898 -182 113 -3 213 81 213 179 0 66 -41 109
-140 147 -120 46 -257 77 -750 166 -124 22 -234 42 -245 44 -11 2 -40 -8 -64
-23z"/>
<path d="M7809 4998 c-56 -15 -88 -55 -99 -124 -13 -76 -5 -116 28 -147 65
-60 191 -74 1022 -112 179 -8 339 -15 356 -15 29 0 33 5 67 78 21 43 37 88 37
100 0 31 -22 71 -57 104 -68 65 -154 81 -528 98 -121 6 -292 15 -380 20 -196
12 -398 11 -446 -2z"/>
<path d="M2297 3650 c-102 -12 -312 -52 -522 -101 -354 -81 -475 -141 -475
-231 0 -13 13 -46 30 -74 69 -122 186 -124 740 -13 295 59 418 100 489 164 46
42 58 80 40 132 -36 111 -115 143 -302 123z"/>
<path d="M7470 3489 c-14 -6 -40 -24 -58 -42 -97 -93 -82 -185 39 -243 170
-83 720 -278 945 -335 103 -26 128 -21 191 35 44 37 63 76 63 122 0 31 -7 45
-45 81 -58 55 -233 140 -455 221 -411 150 -597 194 -680 161z"/>
</g>
</svg>
