<svg width="623" height="468" viewBox="0 0 623 468" fill="none" xmlns="http://www.w3.org/2000/svg">
<path d="M247.011 1.77336C237.144 3.90669 231.144 6.84002 220.211 14.9734C208.611 23.5067 197.144 35.5067 191.678 44.9734C186.478 54.04 186.078 54.1734 175.144 47.3734C171.544 45.1067 165.278 41.3734 161.278 38.84C147.011 30.1734 140.878 28.5734 122.478 28.5734C103.811 28.7067 95.2776 30.9734 86.4776 38.3067C75.5443 47.24 69.9443 66.5734 73.1443 84.84C75.0109 95.9067 83.411 114.307 91.9443 126.04C118.878 162.84 164.611 190.307 202.744 192.707C228.878 194.44 235.678 188.707 265.944 140.307C282.744 113.373 298.478 82.3067 301.678 69.7734C306.611 49.7734 305.678 32.9734 298.878 21.1067C292.344 9.90669 283.278 3.77336 269.811 1.24002C260.211 -0.49331 257.278 -0.49331 247.011 1.77336ZM271.944 30.44C282.611 38.1734 279.144 58.7067 261.144 92.5734C248.078 117.373 229.944 146.707 219.544 160.04C215.811 164.84 215.144 165.107 207.811 165.107C199.411 165.107 182.344 160.573 169.944 155.107C144.478 143.773 115.278 115.773 103.944 91.7734C97.9443 79.1067 97.411 73.24 101.678 65.9067C111.544 48.9734 133.144 51.3734 161.144 72.44C179.944 86.5734 190.078 89.64 197.944 83.5067C203.544 79.24 204.611 77.64 210.611 65.24C224.211 36.9734 255.811 19.1067 271.944 30.44Z" fill="#de333b"/>
<path d="M512.211 199.774C499.144 201.24 496.744 204.44 495.811 221.774C494.877 239.507 496.477 239.107 453.544 232.04C399.411 223.107 386.744 222.04 349.811 222.84C332.211 223.24 311.544 224.574 303.811 225.64C296.077 226.84 275.411 229.774 257.944 232.44C240.344 234.974 215.411 238.04 202.611 239.107C157.144 243.107 149.011 245.64 142.477 258.574C141.144 261.107 139.411 266.974 138.611 271.374C133.277 300.574 157.944 319.907 211.411 328.707C222.344 330.44 234.211 330.974 261.144 331.107C301.011 331.24 302.477 331.374 302.477 332.84C302.477 336.84 294.077 337.507 226.477 338.707L157.811 340.04L127.811 328.04C70.3441 305.107 52.3441 299.774 32.6108 299.774C13.1441 299.774 1.01077 310.707 0.0774394 328.974C-0.589227 340.574 3.01077 350.04 12.3441 362.04C33.4108 388.84 75.5441 411.107 151.144 435.24C215.811 455.907 265.944 465.107 315.011 465.107C354.744 465.24 382.744 461.374 455.944 445.774C474.744 441.774 490.877 438.44 491.944 438.44C493.011 438.44 497.544 442.174 501.944 446.84C517.277 462.44 529.544 466.44 565.944 467.374C586.744 468.04 592.611 467.774 598.611 466.04C606.877 463.64 614.877 456.574 618.077 449.107C621.677 440.974 622.744 407.107 622.077 327.107C621.277 231.24 620.477 223.24 609.277 211.64C602.477 204.574 598.211 202.974 581.811 201.107C567.677 199.507 522.611 198.707 512.211 199.774ZM586.611 229.64C590.877 231.507 591.811 237.374 593.144 273.24C594.744 314.307 595.144 424.84 593.811 432.174C593.277 434.84 591.944 437.774 590.744 438.707C587.544 441.374 556.344 440.84 543.144 437.907C529.944 434.84 525.411 432.707 523.411 428.04C522.344 425.374 521.811 397.374 521.411 325.907L521.011 227.374L552.744 228.04C570.211 228.44 585.411 229.107 586.611 229.64ZM406.477 251.907C420.744 253.24 433.677 254.84 435.144 255.374C436.611 255.774 451.011 258.04 467.011 260.44L496.344 264.574L495.944 285.907C495.277 339.374 492.344 400.707 490.344 406.04C488.877 409.907 479.544 412.707 448.477 418.974C392.877 429.907 333.277 438.44 311.811 438.44C306.344 438.44 293.677 437.507 283.811 436.44C207.677 428.04 104.344 395.374 58.2108 365.24C40.8774 354.04 25.8108 336.174 28.2108 329.907C31.1441 322.44 65.6774 332.44 133.544 360.307L151.944 367.907L203.544 367.107C266.344 366.174 302.477 364.307 308.211 361.907C312.744 360.04 318.211 354.44 330.744 338.707C339.677 327.507 346.477 322.307 357.011 318.307C363.411 315.907 366.477 315.64 378.477 316.174C393.944 316.84 403.677 319.64 412.744 326.307C426.211 336.04 433.144 336.574 436.744 328.04C441.011 317.907 435.411 308.707 420.077 300.707C408.477 294.574 394.477 290.707 379.944 289.64C368.744 288.84 365.144 289.24 343.944 293.774C298.744 303.507 230.077 305.374 198.477 297.774C183.544 294.174 170.077 288.04 167.811 283.64C165.811 280.04 167.411 273.374 170.611 271.774C171.944 270.974 182.611 269.507 194.077 268.307C234.877 264.574 263.411 260.574 315.811 251.774C336.877 248.174 341.144 247.907 359.811 248.574C371.144 248.84 392.211 250.44 406.477 251.907Z" fill="#de333b"/>
</svg>
