<svg width="64" height="64" viewBox="0 0 64 64" fill="none" xmlns="http://www.w3.org/2000/svg">
<path d="M31.7067 54.2045C8.95999 48.8533 9.77777 14.2756 9.77777 14.2756C14 14.32 32 9.76001 32 9.76001V9.84001C32 9.84001 50 14.3911 54.2222 14.3556C54.2222 14.3556 54.4444 48.8533 31.7067 54.2045Z" fill="#D0CFCE"/>
<path d="M41.3831 12.0774C41.3831 12.0774 47.1111 39.1112 32 53.3334C32 53.3334 46.2222 52.4445 51.5556 31.1112C56.8889 9.77784 51.5556 14.2223 51.5556 14.2223L41.3831 12.0774Z" fill="#9B9B9A"/>
<path d="M23.6836 29.1813L31.8302 41.6355L44.9004 20.0675L40.3644 22.2817L31.8587 36.3182L26.5564 28.2133L23.6836 29.1813Z" fill="#61B2E4"/>
<path d="M32 9.76001C32 9.76001 13.9964 14.3182 9.77778 14.28C9.77778 14.28 8.96267 48.8516 31.704 54.2036C54.4444 48.8498 54.2222 14.3556 54.2222 14.3556C50.0036 14.3947 32 9.83557 32 9.83557" stroke="black" stroke-width="1.77778" stroke-miterlimit="10" stroke-linecap="round" stroke-linejoin="round"/>
<path d="M23.6836 29.1814L31.8302 41.6356L44.9004 20.0676L40.3644 22.2818L31.8587 36.3183L26.5564 28.2134L23.6836 29.1814Z" stroke="black" stroke-width="1.77778" stroke-miterlimit="10" stroke-linecap="round" stroke-linejoin="round"/>
</svg>
