<?xml version="1.0" standalone="no"?>
<!DOCTYPE svg PUBLIC "-//W3C//DTD SVG 20010904//EN"
 "http://www.w3.org/TR/2001/REC-SVG-20010904/DTD/svg10.dtd">
<svg version="1.0" xmlns="http://www.w3.org/2000/svg"
 width="720.000000pt" height="1280.000000pt" viewBox="0 0 720.000000 1280.000000"
 preserveAspectRatio="xMidYMid meet">
<metadata>
Created by potrace 1.16, written by Peter Selinger 2001-2019
</metadata>
<g transform="translate(0.000000,1280.000000) scale(0.100000,-0.100000)"
fill="#49c5e4" stroke="none">
<path d="M3124 8485 c-74 -16 -119 -38 -201 -99 -87 -64 -173 -154 -214 -225
-39 -68 -42 -69 -124 -18 -27 17 -74 45 -104 64 -107 65 -153 77 -291 77 -140
-1 -204 -18 -270 -73 -82 -67 -124 -212 -100 -349 14 -83 77 -221 141 -309
202 -276 545 -482 831 -500 196 -13 247 30 474 393 126 202 244 435 268 529
37 150 30 276 -21 365 -49 84 -117 130 -218 149 -72 13 -94 13 -171 -4z m187
-215 c80 -58 54 -212 -81 -466 -98 -186 -234 -406 -312 -506 -28 -36 -33 -38
-88 -38 -63 0 -191 34 -284 75 -191 85 -410 295 -495 475 -45 95 -49 139 -17
194 74 127 236 109 446 -49 141 -106 217 -129 276 -83 42 32 50 44 95 137 102
212 339 346 460 261z"/>
<path d="M5113 7000 c-98 -11 -116 -35 -123 -165 -7 -133 5 -130 -317 -77
-406 67 -501 75 -778 69 -132 -3 -287 -13 -345 -21 -58 -9 -213 -31 -344 -51
-132 -19 -319 -42 -415 -50 -341 -30 -402 -49 -451 -146 -10 -19 -23 -63 -29
-96 -40 -219 145 -364 546 -430 82 -13 171 -17 373 -18 299 -1 310 -2 310 -13
0 -30 -63 -35 -570 -44 l-515 -10 -225 90 c-431 172 -566 212 -714 212 -146 0
-237 -82 -244 -219 -5 -87 22 -158 92 -248 158 -201 474 -368 1041 -549 485
-155 861 -224 1229 -224 298 -1 508 28 1057 145 141 30 262 55 270 55 8 0 42
-28 75 -63 115 -117 207 -147 480 -154 156 -5 200 -3 245 10 62 18 122 71 146
127 27 61 35 315 30 915 -6 719 -12 779 -96 866 -51 53 -83 65 -206 79 -106
12 -444 18 -522 10z m558 -224 c32 -14 39 -58 49 -327 12 -308 15 -1137 5
-1192 -4 -20 -14 -42 -23 -49 -24 -20 -258 -16 -357 6 -99 23 -133 39 -148 74
-8 20 -12 230 -15 766 l-3 739 238 -5 c131 -3 245 -8 254 -12z m-1351 -167
c107 -10 204 -22 215 -26 11 -3 119 -20 239 -38 l220 -31 -3 -160 c-5 -401
-27 -861 -42 -901 -11 -29 -81 -50 -314 -97 -417 -82 -864 -146 -1025 -146
-41 0 -136 7 -210 15 -571 63 -1346 308 -1692 534 -130 84 -243 218 -225 265
22 56 281 -19 790 -228 l138 -57 387 6 c471 7 742 21 785 39 34 14 75 56 169
174 67 84 118 123 197 153 48 18 71 20 161 16 116 -5 189 -26 257 -76 101 -73
153 -77 180 -13 32 76 -10 145 -125 205 -87 46 -192 75 -301 83 -84 6 -111 3
-270 -31 -339 -73 -854 -87 -1091 -30 -112 27 -213 73 -230 106 -15 27 -3 77
21 89 10 6 90 17 176 26 306 28 520 58 913 124 158 27 190 29 330 24 85 -2
243 -14 350 -25z"/>
</g>
</svg>
