<svg width="64" height="64" viewBox="0 0 64 64" fill="none" xmlns="http://www.w3.org/2000/svg">
<path fill-rule="evenodd" clip-rule="evenodd" d="M25.9893 48.7627C24.8995 48.5227 23.8329 48.2027 22.7893 47.8027C21.7717 47.4208 20.7988 46.929 19.888 46.336C18.3035 45.3307 16.9893 43.9529 16.0601 42.3227C15.1309 40.6925 14.6149 38.8595 14.5573 36.984C14.4357 33.2063 15.6122 29.501 17.8906 26.4853C19.3427 24.4621 21.2263 22.7871 23.4053 21.5813C25.6104 20.4148 28.0324 19.7158 30.52 19.528C33.8271 19.3367 37.116 20.1377 39.9648 21.8282C42.8136 23.5187 45.0926 26.0216 46.5093 29.016C47.3542 30.4313 47.9037 32.003 48.1246 33.6364C48.3455 35.2698 48.2333 36.931 47.7947 38.5199C47.3561 40.1088 46.6003 41.5923 45.5727 42.8811C44.5452 44.1699 43.2672 45.2372 41.816 46.0187C41.6957 46.0876 41.5904 46.1798 41.5063 46.2899C41.4222 46.4001 41.361 46.5259 41.3262 46.6601C41.2914 46.7942 41.2838 46.934 41.3038 47.0711C41.3238 47.2083 41.371 47.34 41.4426 47.4587C41.5089 47.578 41.5986 47.6828 41.7064 47.7666C41.8142 47.8504 41.9378 47.9116 42.0698 47.9465C42.2018 47.9813 42.3395 47.9892 42.4746 47.9695C42.6097 47.9498 42.7394 47.9031 42.856 47.832C51.4106 43.1387 52.3973 34.7467 49.1733 27.736C47.5534 24.1703 44.9222 21.1586 41.6063 19.0747C38.2903 16.9908 34.4354 15.9263 30.52 16.0133C27.5195 16.2115 24.5991 17.0663 21.9653 18.5173C18.708 20.3538 16.0486 23.0896 14.305 26.3975C12.5615 29.7055 11.8075 33.4456 12.1333 37.1707C12.2605 39.3969 12.9227 41.5597 14.0637 43.4755C15.2048 45.3914 16.791 47.0038 18.688 48.176C19.7546 48.7911 20.8746 49.2889 22.048 49.6693C23.1769 50.0604 24.3306 50.3627 25.5093 50.576C25.7566 50.6233 26.0126 50.5715 26.2221 50.4318C26.4316 50.2922 26.5778 50.0758 26.6293 49.8293C26.6724 49.604 26.631 49.3706 26.5129 49.1738C26.3949 48.9771 26.2085 48.8307 25.9893 48.7627Z" fill="black"/>
<path fill-rule="evenodd" clip-rule="evenodd" d="M31.7467 44.8187C32.9515 44.5808 34.0747 44.0365 35.0079 43.2383C35.9412 42.44 36.653 41.4147 37.0747 40.2613C37.1437 40.1415 37.1875 40.0088 37.2034 39.8714C37.2192 39.734 37.2068 39.5948 37.1668 39.4624C37.1268 39.33 37.0602 39.2072 36.971 39.1015C36.8817 38.9959 36.7718 38.9096 36.648 38.848C36.5282 38.7789 36.3955 38.7351 36.2581 38.7193C36.1207 38.7034 35.9815 38.7159 35.8491 38.7558C35.7167 38.7958 35.5939 38.8625 35.4882 38.9517C35.3825 39.0409 35.2962 39.1508 35.2347 39.2747C34.7157 40.0668 33.9717 40.6856 33.0983 41.0515C32.2248 41.4174 31.2619 41.5137 30.3333 41.328C29.785 41.2642 29.2472 41.1298 28.7333 40.928C27.3529 40.4874 26.1609 39.5951 25.3493 38.3947C25.3054 38.2658 25.2331 38.1485 25.1377 38.0514C25.0423 37.9543 24.9262 37.8799 24.7982 37.8338C24.6701 37.7877 24.5333 37.7711 24.3978 37.785C24.2624 37.799 24.1319 37.8433 24.016 37.9147C23.79 38.0141 23.6126 38.199 23.5227 38.4289C23.4327 38.6588 23.4375 38.915 23.536 39.1413C24.0933 41.1413 25.376 42.864 27.136 43.968C27.952 44.4427 28.8587 44.7413 29.8 44.8453C30.4489 44.9342 31.0978 44.9253 31.7467 44.8187Z" fill="black"/>
<path fill-rule="evenodd" clip-rule="evenodd" d="M63.696 33.2C63.5314 32.4925 63.2713 31.8106 62.9227 31.1733C62.2928 30.0542 61.437 29.0784 60.4095 28.308C59.382 27.5376 58.2055 26.9896 56.9547 26.6987C56.7496 25.1313 56.4287 23.5813 55.9947 22.0613C55.0076 18.6519 53.287 15.4995 50.9534 12.825C48.6198 10.1505 45.7296 8.0186 42.4853 6.57865C39.0539 5.28128 35.3945 4.69501 31.7295 4.85546C28.0644 5.0159 24.4703 5.91971 21.1653 7.51199C17.766 8.9026 14.7607 11.1077 12.4142 13.9332C10.0678 16.7587 8.45201 20.1178 7.70932 23.7147C7.70932 24.3547 7.70932 24.9947 7.54932 25.6347C6.19399 25.8876 4.91205 26.4393 3.79668 27.2498C2.68131 28.0603 1.76055 29.1091 1.10132 30.32C0.752876 30.96 0.495098 31.6355 0.327987 32.3467C-0.108068 33.8245 -0.108068 35.3968 0.327987 36.8747C0.725198 37.9888 1.39374 38.9865 2.27323 39.7775C3.15271 40.5686 4.21541 41.128 5.36532 41.4053C5.89332 41.5724 6.43554 41.688 6.99199 41.752C7.53243 41.8053 8.07376 41.8053 8.61599 41.752C8.86012 41.7435 9.09396 41.6515 9.2784 41.4913C9.46284 41.3312 9.58672 41.1125 9.62932 40.872C9.73749 40.924 9.85597 40.951 9.97599 40.951C10.096 40.951 10.2145 40.924 10.3227 40.872C10.4859 40.7983 10.6237 40.678 10.7186 40.5261C10.8135 40.3742 10.8613 40.1977 10.856 40.0187C10.2318 37.3932 9.83918 34.7181 9.68265 32.024C9.53332 29.392 9.71999 26.7493 10.2427 24.1627C11.0801 21.0961 12.6394 18.2744 14.7901 15.9335C16.9408 13.5926 19.6205 11.8004 22.6053 10.7067C25.498 9.32098 28.639 8.52917 31.8429 8.37802C35.0467 8.22688 38.2484 8.71946 41.2587 9.82665C44.0926 11.0201 46.637 12.8084 48.7198 15.0706C50.8025 17.3328 52.3749 20.016 53.3307 22.9387C55.3438 29.025 55.1645 35.6239 52.824 41.592C52.7722 41.7197 52.7463 41.8564 52.7478 41.9942C52.7494 42.132 52.7783 42.2682 52.8328 42.3947C52.8874 42.5212 52.9666 42.6357 53.0658 42.7313C53.165 42.827 53.2822 42.902 53.4107 42.952C53.5751 43.0069 53.7529 43.0069 53.9173 42.952C53.1766 44.5018 52.2833 45.9739 51.2507 47.3467C50.264 48.6827 49.112 49.8827 47.8133 50.92C45.82 52.7164 43.248 53.7374 40.5653 53.7973C40.4468 53.5822 40.2559 53.416 40.0264 53.3281C39.797 53.2402 39.5439 53.2364 39.312 53.3173C39.0507 53.4238 38.8422 53.6296 38.7322 53.8895C38.6223 54.1494 38.6198 54.4423 38.7253 54.704C38.7253 55.0507 38.7253 55.2907 38.3787 55.5307C37.952 55.8507 37.4453 56.056 36.9147 56.1147C36.17 56.2565 35.4024 56.2199 34.6747 56.008C33.9375 55.8269 33.2474 55.4905 32.6507 55.0213C32.1973 54.7013 31.8507 54.488 32.0107 54.168C32.2128 53.7799 32.5293 53.4634 32.9173 53.2613L34.7307 52.6747C35.2423 52.5927 35.7592 52.5481 36.2773 52.5413H37.928C38.1645 52.5799 38.4066 52.5233 38.6015 52.3839C38.7964 52.2445 38.9281 52.0336 38.968 51.7973C38.9911 51.6765 38.9902 51.5522 38.9651 51.4318C38.9401 51.3113 38.8915 51.197 38.8221 51.0953C38.7527 50.9937 38.6639 50.9068 38.5608 50.8397C38.4577 50.7725 38.3423 50.7264 38.2213 50.704L34.6747 50.1173C34.223 50.0789 33.769 50.0789 33.3173 50.1173C32.838 50.155 32.3641 50.2444 31.904 50.384C31.1487 50.5731 30.4539 50.9514 29.8852 51.4833C29.3165 52.0151 28.8926 52.683 28.6533 53.424C28.4787 54.2675 28.5756 55.1447 28.9301 55.9298C29.2846 56.715 29.8784 57.3677 30.6267 57.7947C31.6933 58.4987 32.904 58.952 34.1707 59.128C35.3787 59.248 36.6 59.0933 37.7413 58.6747C38.8347 58.2613 39.7653 57.5147 40.408 56.5413C40.5218 56.2924 40.6107 56.0347 40.6747 55.768C43.436 56.1358 46.2419 55.5928 48.6667 54.2213C50.8773 52.94 52.7149 51.1033 53.9973 48.8933C55.161 46.9811 55.9814 44.8801 56.4213 42.6853H57.168C57.7191 42.5964 58.2613 42.472 58.7947 42.312C59.9052 42.0031 60.9242 41.4292 61.764 40.6395C62.6038 39.8499 63.2394 38.8681 63.616 37.7787C64.0983 36.2936 64.1261 34.701 63.696 33.2ZM7.30932 39.488C6.92772 39.3582 6.55379 39.2068 6.18932 39.0347C5.56628 38.7306 5.01977 38.2901 4.59041 37.7458C4.16106 37.2015 3.8599 36.5674 3.70932 35.8907C3.53097 35.0115 3.53188 34.1054 3.71199 33.2267C3.89774 32.1337 4.31476 31.0929 4.93514 30.1741C5.55552 29.2552 6.36496 28.4795 7.30932 27.8987C7.28265 29.3582 7.33599 30.8142 7.46932 32.2667C7.73599 34.8907 8.23465 37.488 8.96265 40.0213C8.80265 40.0213 8.69599 39.8347 8.50932 39.8347L7.30932 39.488ZM57.9413 39.8613C53.9147 41.808 57.6747 37.3573 57.2213 28.8827C58.9042 30.1106 60.0417 31.9465 60.392 34C60.568 34.88 60.568 35.7867 60.392 36.6667C60.2418 37.361 59.9324 38.0111 59.4882 38.5654C59.0439 39.1198 58.477 39.5635 57.832 39.8613H57.9413Z" fill="black"/>
<path fill-rule="evenodd" clip-rule="evenodd" d="M23.5653 28.056C23.0831 28.0439 22.6032 28.1254 22.152 28.296C21.1387 28.696 20.232 29.3146 19.4853 30.1093C19.2777 30.241 19.1304 30.4493 19.0755 30.689C19.0205 30.9287 19.0624 31.1803 19.192 31.3893C19.5653 32.056 24.5253 31.3893 25.4853 31.3893C25.9102 31.4071 26.3271 31.4782 26.736 31.6026C26.9783 31.744 27.2656 31.7869 27.5386 31.7224C27.8116 31.6579 28.0493 31.4909 28.2027 31.256C28.3426 31.0178 28.3847 30.7346 28.32 30.466C28.2553 30.1974 28.089 29.9644 27.856 29.816C27.0582 29.0211 26.0647 28.4508 24.976 28.1626C24.5141 28.0485 24.0391 28.0125 23.5653 28.056ZM42.8853 31.3866C43.0125 31.1745 43.0503 30.9204 42.9903 30.6804C42.9303 30.4404 42.7774 30.234 42.5653 30.1066C41.831 29.302 40.9174 28.6817 39.8987 28.296C39.4475 28.1254 38.9675 28.0439 38.4853 28.056C38.0027 28.0293 37.5147 28.0826 37.048 28.216C35.9627 28.5093 34.9707 29.08 34.168 29.8693C33.9399 30.0223 33.7795 30.2574 33.7204 30.5257C33.6613 30.7939 33.708 31.0746 33.8507 31.3093C33.9994 31.5496 34.2373 31.721 34.5123 31.786C34.7873 31.851 35.0768 31.8042 35.3173 31.656C35.7244 31.5315 36.1422 31.4604 36.5707 31.4426C39.5787 31.2026 42.3253 32.3466 42.8853 31.3866Z" fill="black"/>
</svg>
