<svg width="64" height="64" viewBox="0 0 64 64" fill="none" xmlns="http://www.w3.org/2000/svg">
<path d="M32 1.14285C26.752 1.14285 21.6275 1.62285 16.7177 2.17142C12.9861 2.59931 9.50993 4.28055 6.85768 6.94027C4.20544 9.6 2.53398 13.0808 2.1166 16.8137C1.59088 21.7006 1.14288 26.7886 1.14288 32C1.14288 37.2114 1.59088 42.2994 2.1166 47.1863C2.53398 50.9192 4.20544 54.4 6.85768 57.0597C9.50993 59.7194 12.9861 61.4007 16.7177 61.8286C21.6275 62.3771 26.752 62.8571 32 62.8571C37.248 62.8571 42.3726 62.3771 47.2823 61.8286C51.014 61.4007 54.4901 59.7194 57.1424 57.0597C59.7946 54.4 61.4661 50.9192 61.8835 47.1863C62.4092 42.2994 62.8572 37.2114 62.8572 32C62.8572 26.7886 62.4092 21.7006 61.8835 16.8137C61.4661 13.0808 59.7946 9.6 57.1424 6.94027C54.4901 4.28055 51.014 2.59931 47.2823 2.17142C42.3726 1.62285 37.248 1.14285 32 1.14285Z" fill="#8FBFFA"/>
<path fill-rule="evenodd" clip-rule="evenodd" d="M34.9806 10.9806C35.6778 10.9007 36.38 11.0803 36.9533 11.485C37.5266 11.8896 37.9309 12.4912 38.0892 13.1748C38.7566 16.0411 40.0046 18.272 41.6869 19.7714C43.3326 21.2388 45.5726 22.1714 48.5897 22.1714C49.3475 22.1714 50.0742 22.4724 50.61 23.0083C51.1459 23.5441 51.4469 24.2708 51.4469 25.0286C51.4469 25.7863 51.1459 26.513 50.61 27.0489C50.0742 27.5847 49.3475 27.8857 48.5897 27.8857C44.4389 27.8857 40.9097 26.6057 38.1623 24.2743V40.2286C38.1623 42.762 37.4111 45.2385 36.0036 47.3449C34.5961 49.4514 32.5956 51.0932 30.255 52.0627C27.9144 53.0322 25.3389 53.2858 22.8542 52.7916C20.3695 52.2973 18.0871 51.0774 16.2957 49.286C14.5043 47.4946 13.2844 45.2122 12.7901 42.7275C12.2959 40.2428 12.5496 37.6673 13.519 35.3267C14.4885 32.9862 16.1303 30.9856 18.2368 29.5781C20.3432 28.1707 22.8197 27.4194 25.3532 27.4194C26.1109 27.4194 26.8376 27.7204 27.3735 28.2563C27.9093 28.7921 28.2103 29.5188 28.2103 30.2766C28.2103 31.0343 27.9093 31.761 27.3735 32.2969C26.8376 32.8327 26.1109 33.1337 25.3532 33.1337C23.9499 33.1337 22.5782 33.5498 21.4115 34.3294C20.2447 35.109 19.3354 36.2171 18.7984 37.5135C18.2614 38.8099 18.1209 40.2364 18.3946 41.6127C18.6684 42.989 19.3441 44.2531 20.3363 45.2454C21.3286 46.2376 22.5927 46.9133 23.969 47.1871C25.3453 47.4609 26.7718 47.3203 28.0682 46.7834C29.3647 46.2464 30.4727 45.337 31.2523 44.1703C32.0319 43.0035 32.448 41.6318 32.448 40.2286V13.8194C32.448 12.3703 33.536 11.1497 34.9806 10.9851" fill="#2859C5"/>
</svg>
