<svg width="64" height="64" viewBox="0 0 64 64" fill="none" xmlns="http://www.w3.org/2000/svg">
<path opacity="0.15" d="M4.88 60.2C4.88 60.5239 5.58148 60.8447 6.94439 61.144C8.30729 61.4432 10.3049 61.7152 12.8233 61.9442C15.3416 62.1733 18.3313 62.3549 21.6216 62.4789C24.912 62.6029 28.4386 62.6667 32 62.6667C35.5614 62.6667 39.088 62.6029 42.3784 62.4789C45.6687 62.3549 48.6584 62.1733 51.1767 61.9442C53.6951 61.7152 55.6927 61.4432 57.0556 61.144C58.4185 60.8447 59.12 60.5239 59.12 60.2C59.12 59.5458 56.2627 58.9184 51.1767 58.4558C46.0908 57.9932 39.1927 57.7333 32 57.7333C24.8073 57.7333 17.9093 57.9932 12.8233 58.4558C7.73728 58.9184 4.88 59.5458 4.88 60.2Z" fill="#45413C"/>
<path d="M8.98667 45.3333H55.0133C55.4483 45.3333 55.8654 45.5061 56.173 45.8137C56.4805 46.1212 56.6533 46.5384 56.6533 46.9733V58.48C56.6533 58.6992 56.5662 58.9095 56.4112 59.0645C56.2562 59.2196 56.0459 59.3067 55.8267 59.3067H8.17333C8.06477 59.3067 7.95728 59.2853 7.85698 59.2437C7.75668 59.2022 7.66555 59.1413 7.58879 59.0645C7.51203 58.9878 7.45114 58.8966 7.40959 58.7963C7.36805 58.6961 7.34667 58.5886 7.34667 58.48V47C7.34313 46.7824 7.38293 46.5663 7.46376 46.3642C7.5446 46.1621 7.66484 45.9782 7.81748 45.8231C7.97012 45.6679 8.15211 45.5447 8.35284 45.4607C8.55358 45.3766 8.76903 45.3333 8.98667 45.3333Z" fill="white" stroke="#45413C" stroke-width="1.33333" stroke-linecap="round" stroke-linejoin="round"/>
<path d="M9.81333 7.56H54.1867V45.36H9.81333V7.56Z" fill="white"/>
<path d="M9.81333 7.56H54.1867V11.0533H9.81333V7.56Z" fill="#E0E0E0"/>
<path d="M9.81333 7.56H54.1867V45.36H9.81333V7.56Z" stroke="#45413C" stroke-width="1.33333" stroke-linecap="round" stroke-linejoin="round"/>
<path d="M8.17333 3.45334H55.84V7.56001H8.17333V3.45334Z" fill="#87898C"/>
<path d="M54.1867 3.45334H9.81333C9.37838 3.45334 8.96124 3.62612 8.65368 3.93368C8.34612 4.24124 8.17333 4.65838 8.17333 5.09334V5.92001C8.17263 6.13035 8.2134 6.33877 8.29333 6.53334C8.41556 6.23024 8.62555 5.97056 8.89638 5.78764C9.16721 5.60471 9.48651 5.50687 9.81333 5.50667H54.1867C54.5135 5.50687 54.8328 5.60471 55.1036 5.78764C55.3744 5.97056 55.5844 6.23024 55.7067 6.53334C55.7866 6.33877 55.8274 6.13035 55.8267 5.92001V5.09334C55.8267 4.65838 55.6539 4.24124 55.3463 3.93368C55.0388 3.62612 54.6216 3.45334 54.1867 3.45334Z" fill="#BDBEC0"/>
<path d="M8.17333 3.45334H55.84V7.56001H8.17333V3.45334Z" stroke="#45413C" stroke-width="1.33333" stroke-linecap="round" stroke-linejoin="round"/>
<path d="M25.4267 48.6533H38.5733V59.3333H25.4267V48.6533Z" fill="#00B8F0"/>
<path d="M28 59.3333H34.32L38.5733 48.6533H32.2533L28 59.3333Z" fill="#4ACFFF"/>
<path d="M25.4267 48.6533H38.5733V59.3333H25.4267V48.6533Z" stroke="#45413C" stroke-width="1.33333" stroke-linecap="round" stroke-linejoin="round"/>
<path d="M13.92 49.4667H18.8533V55.2133H13.92V49.4667Z" fill="#00B8F0"/>
<path d="M15.64 55.2267H18.8533V49.4667H17.9333L15.64 55.2267Z" fill="#4ACFFF"/>
<path d="M14.7467 35.5067H19.68V41.2533H14.7467V35.5067Z" fill="#00B8F0"/>
<path d="M16.4533 41.2533H19.6667V35.5067H18.7467L16.4533 41.2533Z" fill="#4ACFFF"/>
<path d="M44.3333 35.5067H49.2667V41.2533H44.3333V35.5067Z" fill="#00B8F0"/>
<path d="M46.04 41.2533H49.2533V35.5067H48.3333L46.04 41.2533Z" fill="#4ACFFF"/>
<path d="M34.4667 35.5067H39.4V41.2533H34.4667V35.5067Z" fill="#00B8F0"/>
<path d="M36.1867 41.2533H39.4V35.5067H38.4667L36.1867 41.2533Z" fill="#4ACFFF"/>
<path d="M24.6 35.5067H29.5333V41.2533H24.6V35.5067Z" fill="#00B8F0"/>
<path d="M26.32 41.2533H29.5333V35.5067H28.6133L26.32 41.2533Z" fill="#4ACFFF"/>
<path d="M14.7467 24H19.68V29.7467H14.7467V24Z" fill="#00B8F0"/>
<path d="M16.4533 29.7467H19.6667V24H18.7467L16.4533 29.7467Z" fill="#4ACFFF"/>
<path d="M44.3333 24H49.2667V29.7467H44.3333V24Z" fill="#00B8F0"/>
<path d="M46.04 29.7467H49.2533V24H48.3333L46.04 29.7467Z" fill="#4ACFFF"/>
<path d="M34.4667 24H39.4V29.7467H34.4667V24Z" fill="#00B8F0"/>
<path d="M36.1867 29.7467H39.4V24H38.4667L36.1867 29.7467Z" fill="#4ACFFF"/>
<path d="M24.6 24H29.5333V29.7467H24.6V24Z" fill="#00B8F0"/>
<path d="M26.32 29.7467H29.5333V24H28.6133L26.32 29.7467Z" fill="#4ACFFF"/>
<path d="M14.7467 12.4933H19.68V18.24H14.7467V12.4933Z" fill="#00B8F0"/>
<path d="M16.4533 18.24H19.6667V12.4933H18.7467L16.4533 18.24Z" fill="#4ACFFF"/>
<path d="M44.3333 12.4933H49.2667V18.24H44.3333V12.4933Z" fill="#00B8F0"/>
<path d="M46.04 18.24H49.2533V12.4933H48.3333L46.04 18.24Z" fill="#4ACFFF"/>
<path d="M34.4667 12.4933H39.4V18.24H34.4667V12.4933Z" fill="#00B8F0"/>
<path d="M36.1867 18.24H39.4V12.4933H38.4667L36.1867 18.24Z" fill="#4ACFFF"/>
<path d="M24.6 12.4933H29.5333V18.24H24.6V12.4933Z" fill="#00B8F0"/>
<path d="M26.32 18.24H29.5333V12.4933H28.6133L26.32 18.24Z" fill="#4ACFFF"/>
<path d="M14.7467 35.5067H19.68V41.2533H14.7467V35.5067ZM44.3333 35.5067H49.2667V41.2533H44.3333V35.5067ZM34.4667 35.5067H39.4V41.2533H34.4667V35.5067ZM24.6 35.5067H29.5333V41.2533H24.6V35.5067ZM14.7467 24H19.68V29.7467H14.7467V24ZM44.3333 24H49.2667V29.7467H44.3333V24ZM34.4667 24H39.4V29.7467H34.4667V24ZM24.6 24H29.5333V29.7467H24.6V24ZM14.7467 12.4933H19.68V18.24H14.7467V12.4933ZM44.3333 12.4933H49.2667V18.24H44.3333V12.4933ZM34.4667 12.4933H39.4V18.24H34.4667V12.4933ZM24.6 12.4933H29.5333V18.24H24.6V12.4933Z" stroke="#45413C" stroke-width="1.33333" stroke-linecap="round" stroke-linejoin="round"/>
<path d="M45.1467 49.4667H50.08V55.2133H45.1467V49.4667Z" fill="#00B8F0"/>
<path d="M46.8933 55.2267H50.12V49.4667H49.1867L46.8933 55.2267Z" fill="#4ACFFF"/>
<path d="M32 48.6533V59.3333M13.92 49.4667H18.8533V55.2133H13.92V49.4667ZM45.1467 49.4667H50.08V55.2133H45.1467V49.4667Z" stroke="#45413C" stroke-width="1.33333" stroke-linecap="round" stroke-linejoin="round"/>
<path d="M23.48 44.5467H40.5333V48.6533H23.48V44.5467Z" fill="#87898C"/>
<path d="M38.88 44.5467H25.12C24.685 44.5467 24.2679 44.7194 23.9603 45.027C23.6528 45.3346 23.48 45.7517 23.48 46.1867V47C23.4819 47.2132 23.5179 47.4248 23.5867 47.6267C23.7227 47.336 23.9398 47.0908 24.2117 46.9205C24.4837 46.7502 24.7991 46.6621 25.12 46.6667H38.88C39.2068 46.6669 39.5261 46.7647 39.797 46.9476C40.0678 47.1306 40.2778 47.3902 40.4 47.6933C40.4817 47.4946 40.5225 47.2815 40.52 47.0667V46.2533C40.529 46.0324 40.4932 45.812 40.4148 45.6052C40.3364 45.3985 40.2171 45.2098 40.0639 45.0503C39.9107 44.8909 39.7268 44.7641 39.5234 44.6776C39.3199 44.591 39.1011 44.5465 38.88 44.5467Z" fill="#BDBEC0"/>
<path d="M23.48 44.5467H40.5333V48.6533H23.48V44.5467Z" stroke="#45413C" stroke-width="1.33333" stroke-linecap="round" stroke-linejoin="round"/>
</svg>
