<svg width="64" height="64" viewBox="0 0 64 64" fill="none" xmlns="http://www.w3.org/2000/svg">
<path d="M54.6959 64H11.0005C10.8662 64 10.7332 63.9736 10.6091 63.9222C10.485 63.8708 10.3722 63.7955 10.2772 63.7005C10.1823 63.6055 10.1069 63.4928 10.0555 63.3687C10.0042 63.2446 9.97772 63.1116 9.97775 62.9772V1.02275C9.97772 0.888431 10.0042 0.755422 10.0555 0.631322C10.1069 0.507221 10.1823 0.394461 10.2772 0.299483C10.3722 0.204506 10.485 0.129172 10.6091 0.0777853C10.7332 0.026399 10.8662 -3.28142e-05 11.0005 3.05726e-08H36.0988L55.7188 19.62V62.9772C55.7187 63.2485 55.6109 63.5087 55.4191 63.7005C55.2273 63.8923 54.9671 64 54.6959 64Z" fill="#F9E7C0"/>
<path d="M36.0988 0L55.7188 19.62H40.269C37.9658 19.62 36.0986 17.7529 36.0986 15.4496V0H36.0988Z" fill="#EAC083"/>
<path d="M29.3848 11.5501H15.8066C15.0383 11.5501 14.4154 10.9273 14.4154 10.1589C14.4154 9.39051 15.0383 8.76764 15.8066 8.76764H29.3848C30.1531 8.76764 30.776 9.39051 30.776 10.1589C30.776 10.9273 30.1531 11.5501 29.3848 11.5501ZM30.776 19.2655C30.776 18.4971 30.1531 17.8743 29.3848 17.8743H15.8066C15.0383 17.8743 14.4154 18.4971 14.4154 19.2655C14.4154 20.0339 15.0383 20.6568 15.8066 20.6568H29.3848C30.1531 20.6568 30.776 20.0339 30.776 19.2655ZM30.776 28.3723C30.776 27.6039 30.1531 26.981 29.3848 26.981H15.8066C15.0383 26.981 14.4154 27.6039 14.4154 28.3723C14.4154 29.1406 15.0383 29.7635 15.8066 29.7635H29.3848C30.1531 29.7634 30.776 29.1406 30.776 28.3723ZM42.5308 37.4789C42.5308 36.7106 41.9079 36.0876 41.1395 36.0876H15.8066C15.0383 36.0876 14.4154 36.7105 14.4154 37.4789C14.4154 38.2473 15.0383 38.8701 15.8066 38.8701H41.1395C41.9079 38.8701 42.5308 38.2473 42.5308 37.4789ZM47.2174 28.3723C47.2174 27.6039 46.5945 26.981 45.8261 26.981H36.453C35.6847 26.981 35.0617 27.6039 35.0617 28.3723C35.0617 29.1406 35.6846 29.7635 36.453 29.7635H45.8261C46.5945 29.7634 47.2174 29.1406 47.2174 28.3723ZM37.49 46.5856C37.49 45.8174 36.8671 45.1944 36.0988 45.1944H15.8066C15.0383 45.1944 14.4154 45.8173 14.4154 46.5856C14.4154 47.354 15.0383 47.9769 15.8066 47.9769H36.0988C36.8671 47.9768 37.49 47.3539 37.49 46.5856ZM45.7663 55.6923C45.7663 54.924 45.1434 54.301 44.375 54.301H15.8066C15.0383 54.301 14.4154 54.9239 14.4154 55.6923C14.4154 56.4606 15.0383 57.0835 15.8066 57.0835H44.375C45.1432 57.0835 45.7663 56.4606 45.7663 55.6923Z" fill="#597B91"/>
</svg>
