<svg width="64" height="64" viewBox="0 0 64 64" fill="none" xmlns="http://www.w3.org/2000/svg">
<path d="M1.35823 31.617C1.35674 36.9942 2.76176 42.2447 5.43339 46.8726L1.10272 62.6845L17.2843 58.4417C21.7599 60.8781 26.7745 62.1548 31.8703 62.1552H31.8837C48.7061 62.1552 62.3998 48.4664 62.407 31.6411C62.4103 23.488 59.238 15.8214 53.4746 10.0535C47.7121 4.28601 40.0482 1.10809 31.8825 1.10437C15.0582 1.10437 1.36542 14.7924 1.35847 31.617" fill="url(#paint0_linear_18_86)"/>
<path d="M0.268478 31.6071C0.266742 37.1778 1.72212 42.6161 4.48901 47.4096L0.00305176 63.7884L16.7648 59.3935C21.3833 61.9116 26.5831 63.2392 31.8743 63.2412H31.8879C49.3138 63.2412 63.4995 49.06 63.5069 31.6324C63.5099 23.1864 60.2236 15.2442 54.2542 9.26958C48.2841 3.29575 40.3461 0.00347287 31.8879 0C14.4591 0 0.275424 14.1792 0.268478 31.6071ZM10.2507 46.5841L9.62488 45.5906C6.99394 41.4073 5.60528 36.573 5.60727 31.6091C5.61273 17.1235 17.4016 5.33829 31.8979 5.33829C38.918 5.34127 45.5155 8.07789 50.4777 13.0431C55.4397 18.0088 58.1701 24.6097 58.1684 31.6304C58.1619 46.116 46.3728 57.9026 31.8879 57.9026H31.8775C27.1611 57.9002 22.5355 56.6335 18.5015 54.24L17.5415 53.6707L7.59474 56.2786L10.2507 46.5841Z" fill="url(#paint1_linear_18_86)"/>
<path d="M23.9852 18.3933C23.3933 17.0778 22.7704 17.0513 22.2076 17.0282C21.7467 17.0084 21.2198 17.0099 20.6934 17.0099C20.1665 17.0099 19.3105 17.2081 18.5869 17.9981C17.8625 18.789 15.8215 20.7 15.8215 24.5869C15.8215 28.4738 18.6526 32.2304 19.0473 32.7581C19.4424 33.2847 24.5128 41.5164 32.5431 44.6832C39.2169 47.3148 40.5751 46.7914 42.0235 46.6595C43.4722 46.528 46.698 44.7489 47.3561 42.9041C48.0147 41.0595 48.0147 39.4783 47.8173 39.1479C47.6198 38.8187 47.0929 38.621 46.3028 38.2261C45.5128 37.8312 41.6284 35.9196 40.9043 35.6559C40.1799 35.3925 39.6533 35.261 39.1264 36.0521C38.5995 36.8419 37.0866 38.621 36.6254 39.1479C36.1648 39.676 35.7036 39.7418 34.9138 39.3466C34.1232 38.9502 31.5789 38.117 28.5602 35.4257C26.2115 33.3316 24.6259 30.7455 24.165 29.9545C23.7041 29.1646 24.1157 28.7365 24.5118 28.3428C24.8668 27.9888 25.3022 27.4203 25.6976 26.9591C26.0915 26.4977 26.223 26.1685 26.4864 25.6417C26.7501 25.1143 26.6181 24.6529 26.4209 24.2577C26.223 23.8626 24.6877 19.9553 23.9852 18.3933Z" fill="white"/>
<defs>
<linearGradient id="paint0_linear_18_86" x1="3066.32" y1="6159.12" x2="3066.32" y2="1.10437" gradientUnits="userSpaceOnUse">
<stop stop-color="#1FAF38"/>
<stop offset="1" stop-color="#60D669"/>
</linearGradient>
<linearGradient id="paint1_linear_18_86" x1="3175.2" y1="6378.84" x2="3175.2" y2="0" gradientUnits="userSpaceOnUse">
<stop stop-color="#F9F9F9"/>
<stop offset="1" stop-color="white"/>
</linearGradient>
</defs>
</svg>
